<svg width="959" height="595" viewBox="0 0 959 595" fill="none" xmlns="http://www.w3.org/2000/svg">
<g clip-path="url(#clip0)">
<rect x="227" y="32" width="531" height="458" rx="8" fill="#F2F2F2"/>
<rect x="613.465" y="103" width="88.5406" height="94.3412" rx="8" fill="white"/>
<path fill-rule="evenodd" clip-rule="evenodd" d="M657.735 157.741C668.912 157.741 677.973 149.398 677.973 139.106C677.973 128.814 668.912 120.471 657.735 120.471C646.558 120.471 637.497 128.814 637.497 139.106C637.497 149.398 646.558 157.741 657.735 157.741Z" fill="#DDE3E9"/>
<rect x="626.114" y="162.4" width="63.2432" height="6.98822" rx="3.49411" fill="#DDE3E9"/>
<rect x="636.232" y="174.047" width="43.0054" height="6.98822" rx="3.49411" fill="#DDE3E9"/>
<path d="M227 60.9177C227 56.4994 230.582 52.9177 235 52.9177H750C754.418 52.9177 758 56.4994 758 60.9177V84.3647H227V60.9177Z" fill="#C5CFD6"/>
<path fill-rule="evenodd" clip-rule="evenodd" d="M314.957 73.8824C317.751 73.8824 320.016 71.7965 320.016 69.2235C320.016 66.6505 317.751 64.5647 314.957 64.5647C312.163 64.5647 309.897 66.6505 309.897 69.2235C309.897 71.7965 312.163 73.8824 314.957 73.8824Z" fill="#F2F2F2"/>
<path fill-rule="evenodd" clip-rule="evenodd" d="M330.135 73.8824C332.929 73.8824 335.195 71.7965 335.195 69.2235C335.195 66.6505 332.929 64.5647 330.135 64.5647C327.341 64.5647 325.076 66.6505 325.076 69.2235C325.076 71.7965 327.341 73.8824 330.135 73.8824Z" fill="#F2F2F2"/>
<path fill-rule="evenodd" clip-rule="evenodd" d="M345.314 73.8824C348.108 73.8824 350.373 71.7965 350.373 69.2235C350.373 66.6505 348.108 64.5647 345.314 64.5647C342.519 64.5647 340.254 66.6505 340.254 69.2235C340.254 71.7965 342.519 73.8824 345.314 73.8824Z" fill="#F2F2F2"/>
<rect x="613.465" y="206.659" width="88.5406" height="225.953" rx="8" fill="white"/>
<rect x="636.232" y="227.624" width="43.0054" height="30.2823" rx="4" fill="#DDE3E9"/>
<rect x="636.232" y="267.224" width="43.0054" height="29.1177" rx="4" fill="#AFB9C5"/>
<rect x="636.232" y="305.659" width="43.0054" height="29.1177" rx="4" fill="#DDE3E9"/>
<rect x="636.232" y="382.529" width="43.0054" height="29.1177" rx="4" fill="#DDE3E9"/>
<rect x="636.232" y="344.094" width="43.0054" height="29.1176" rx="4" fill="#C5CFD6"/>
<rect x="243" y="76" width="395.355" height="149.315" rx="4" fill="white"/>
<rect x="324.828" y="117.871" width="198.365" height="7.71098" rx="3" fill="#DDE3E9"/>
<rect x="324.827" y="130.723" width="133.149" height="7.71098" rx="3" fill="#DDE3E9"/>
<path fill-rule="evenodd" clip-rule="evenodd" d="M552.834 135.809C557.426 135.809 561.149 132.381 561.149 128.152C561.149 123.924 557.426 120.496 552.834 120.496C548.242 120.496 544.519 123.924 544.519 128.152C544.519 132.381 548.242 135.809 552.834 135.809Z" fill="#DDE3E9"/>
<path fill-rule="evenodd" clip-rule="evenodd" d="M552.834 131.434C554.802 131.434 556.398 129.965 556.398 128.152C556.398 126.34 554.802 124.871 552.834 124.871C550.866 124.871 549.271 126.34 549.271 128.152C549.271 129.965 550.866 131.434 552.834 131.434Z" fill="#F2F2F2"/>
<rect x="243" y="127.65" width="395.355" height="141.802" rx="4" fill="white"/>
<rect x="324.828" y="175.403" width="198.365" height="6.3985" rx="3" fill="#DDE3E9"/>
<rect x="324.827" y="186.067" width="133.149" height="6.39847" rx="3" fill="#DDE3E9"/>
<path fill-rule="evenodd" clip-rule="evenodd" d="M552.834 191.591C557.426 191.591 561.149 188.163 561.149 183.934C561.149 179.706 557.426 176.278 552.834 176.278C548.242 176.278 544.519 179.706 544.519 183.934C544.519 188.163 548.242 191.591 552.834 191.591Z" fill="#DDE3E9"/>
<path fill-rule="evenodd" clip-rule="evenodd" d="M552.834 187.216C554.802 187.216 556.398 185.746 556.398 183.934C556.398 182.122 554.802 180.653 552.834 180.653C550.866 180.653 549.271 182.122 549.271 183.934C549.271 185.746 550.866 187.216 552.834 187.216Z" fill="#F2F2F2"/>
<rect x="243" y="171.787" width="395.355" height="141.802" rx="4" fill="white"/>
<rect x="324.828" y="226.81" width="198.365" height="6.39847" rx="3" fill="#DDE3E9"/>
<rect x="324.827" y="237.474" width="133.149" height="6.39844" rx="3" fill="#DDE3E9"/>
<path fill-rule="evenodd" clip-rule="evenodd" d="M552.834 242.997C557.426 242.997 561.149 239.569 561.149 235.341C561.149 231.112 557.426 227.685 552.834 227.685C548.242 227.685 544.519 231.112 544.519 235.341C544.519 239.569 548.242 242.997 552.834 242.997Z" fill="#DDE3E9"/>
<path fill-rule="evenodd" clip-rule="evenodd" d="M552.834 238.622C554.802 238.622 556.398 237.153 556.398 235.341C556.398 233.529 554.802 232.06 552.834 232.06C550.866 232.06 549.271 233.529 549.271 235.341C549.271 237.153 550.866 238.622 552.834 238.622Z" fill="#AFB9C5"/>
<rect x="243" y="304.198" width="395.355" height="141.802" rx="4" fill="white"/>
<rect x="324.828" y="381.03" width="198.365" height="6.39847" rx="3" fill="#DDE3E9"/>
<rect x="324.827" y="391.694" width="133.149" height="6.39853" rx="3" fill="#DDE3E9"/>
<path fill-rule="evenodd" clip-rule="evenodd" d="M552.834 397.217C557.426 397.217 561.149 393.789 561.149 389.561C561.149 385.332 557.426 381.905 552.834 381.905C548.242 381.905 544.519 385.332 544.519 389.561C544.519 393.789 548.242 397.217 552.834 397.217Z" fill="#DDE3E9"/>
<path fill-rule="evenodd" clip-rule="evenodd" d="M552.834 392.842C554.802 392.842 556.398 391.373 556.398 389.561C556.398 387.749 554.802 386.28 552.834 386.28C550.866 386.28 549.271 387.749 549.271 389.561C549.271 391.373 550.866 392.842 552.834 392.842Z" fill="#F2F2F2"/>
<rect x="243" y="260.061" width="395.355" height="141.802" rx="4" fill="white"/>
<rect x="324.828" y="329.623" width="198.365" height="6.39844" rx="3" fill="#DDE3E9"/>
<rect x="324.827" y="340.287" width="133.149" height="6.39844" rx="3" fill="#DDE3E9"/>
<path fill-rule="evenodd" clip-rule="evenodd" d="M552.834 345.811C557.426 345.811 561.149 342.383 561.149 338.154C561.149 333.926 557.426 330.498 552.834 330.498C548.242 330.498 544.519 333.926 544.519 338.154C544.519 342.383 548.242 345.811 552.834 345.811Z" fill="#DDE3E9"/>
<path fill-rule="evenodd" clip-rule="evenodd" d="M552.834 341.436C554.802 341.436 556.398 339.966 556.398 338.154C556.398 336.342 554.802 334.873 552.834 334.873C550.866 334.873 549.271 336.342 549.271 338.154C549.271 339.966 550.866 341.436 552.834 341.436Z" fill="#F2F2F2"/>
<rect x="243" y="215.924" width="395.355" height="141.802" rx="4" fill="white"/>
<rect x="324.828" y="278.216" width="198.365" height="6.39847" rx="3" fill="#DDE3E9"/>
<rect x="324.827" y="288.88" width="133.149" height="6.39844" rx="3" fill="#DDE3E9"/>
<path fill-rule="evenodd" clip-rule="evenodd" d="M552.834 294.404C557.426 294.404 561.149 290.976 561.149 286.747C561.149 282.519 557.426 279.091 552.834 279.091C548.242 279.091 544.519 282.519 544.519 286.747C544.519 290.976 548.242 294.404 552.834 294.404Z" fill="#DDE3E9"/>
<path fill-rule="evenodd" clip-rule="evenodd" d="M552.834 290.029C554.802 290.029 556.398 288.56 556.398 286.747C556.398 284.935 554.802 283.466 552.834 283.466C550.866 283.466 549.271 284.935 549.271 286.747C549.271 288.56 550.866 290.029 552.834 290.029Z" fill="#F2F2F2"/>
<path fill-rule="evenodd" clip-rule="evenodd" d="M310.181 228.584C317.455 232.971 324.602 235.091 327.957 234.226C336.37 232.056 337.144 201.257 330.634 189.115C324.125 176.974 290.661 171.681 288.974 195.738C288.388 204.088 291.892 211.539 297.068 217.619L287.787 260.909H314.747L310.181 228.584Z" fill="#B28B67"/>
<path fill-rule="evenodd" clip-rule="evenodd" d="M333.18 194.567C332.913 192.993 332.26 191.246 331.733 189.757C331.054 187.837 330.027 186.106 328.896 184.475C326.767 181.404 324.214 178.631 321.394 176.33C316.244 172.126 309.688 169.701 303.241 170.488C299.986 170.886 296.826 172.128 294.136 174.197C291.707 176.065 289.369 178.816 286.223 179.013C282.799 179.228 279.661 176.204 276.915 174.337C273.819 172.231 270.526 170.697 266.908 170.101C260.846 169.102 255.152 171.151 250.975 176.128C246.529 181.424 243.298 189.19 246.217 196.207C246.76 197.511 247.458 198.611 248.46 199.522C249.378 200.358 250.782 201.247 251.154 202.583C251.55 204.002 250.368 205.833 249.91 207.114C249.253 208.949 248.714 210.875 248.905 212.87C249.22 216.146 251.277 219.273 253.45 221.426C255.66 223.616 258.38 224.873 261.286 225.452C263.226 225.839 265.209 226.052 267.181 225.907C268.16 225.835 269.024 225.563 269.972 225.346C270.895 225.136 271.41 225.381 272.193 225.887C275.828 228.239 279.736 229.149 283.934 228.799C287.476 228.504 291.559 227.644 294.449 225.216C297.659 222.518 297.595 218.798 296.84 214.824C297.64 215.22 299.853 215.466 298.53 213.884C298.006 213.258 297.016 213.003 296.344 212.635C295.561 212.206 294.766 211.651 294.158 210.951C291.704 208.126 294.183 202.376 297.268 201.428C301.852 200.02 302.878 206.507 306.15 208.185C308.032 209.15 310 207.831 311.409 206.485C313.298 204.681 314.584 202.291 315.695 199.86C316.611 197.857 317.462 195.826 318.395 193.834C318.831 192.903 320.339 190.272 319.581 189.22C322.864 188.565 326.521 189.93 329.349 191.721C330.517 192.461 331.408 193.277 332.032 194.584C332.165 194.864 332.456 195.696 332.821 195.73C333.501 195.794 333.247 194.963 333.18 194.567" fill="#191847"/>
<path fill-rule="evenodd" clip-rule="evenodd" d="M219.537 402.548C210.7 402.548 203.537 409.711 203.537 418.548V525.939C203.537 534.776 210.7 541.939 219.537 541.939H352.667C361.503 541.939 368.667 534.776 368.667 525.939V418.548C368.667 409.711 361.503 402.548 352.667 402.548H219.537ZM238.99 434.023C236.781 434.023 234.99 435.814 234.99 438.023V506.464C234.99 508.673 236.781 510.464 238.99 510.464H333.213C335.422 510.464 337.213 508.673 337.213 506.464V438.023C337.213 435.814 335.422 434.023 333.213 434.023H238.99Z" fill="#C5CFD6"/>
<path fill-rule="evenodd" clip-rule="evenodd" d="M480.055 536.319C457.908 509.254 442.922 489.19 435.099 476.126C421.703 453.757 410.739 433.853 407.279 426.249C399.029 408.118 426.273 399.628 432.439 408.085C441.772 420.885 461.703 461.163 492.233 528.919L480.055 536.319Z" fill="#B28B67"/>
<path fill-rule="evenodd" clip-rule="evenodd" d="M434.671 528.45L393.453 424.622C384.638 405.695 427.21 393.254 433.689 402.062C448.398 422.06 483.358 500.947 487.74 506.905L434.671 528.45Z" fill="#2F3676"/>
<path fill-rule="evenodd" clip-rule="evenodd" d="M324.894 507.625C332.922 495.905 362.125 456.476 378.032 440.162C382.603 435.474 387.063 430.974 391.281 426.781C403.82 414.318 428.792 435.269 416.276 446.621C385.108 474.892 339.631 513.056 335.831 516.459C330.506 521.228 319.848 514.991 324.894 507.625Z" fill="#B28B67"/>
<path fill-rule="evenodd" clip-rule="evenodd" d="M329.937 502.586C329.25 501.637 327.909 501.414 327.011 502.164C325.172 503.7 322.363 506.201 321.374 507.916C319.854 510.55 317.816 516.108 317.816 516.108C320.869 517.872 372.686 547.809 372.686 547.809C372.686 547.809 378.907 541.969 374.625 538.743C370.342 535.516 367.556 533.301 367.556 533.301L348.543 507.086C348.212 506.63 347.57 506.537 347.124 506.881L343.088 509.991C343.088 509.991 337.673 509.518 335.006 507.977C333.315 507 331.234 504.376 329.937 502.586Z" fill="#E4E4E4"/>
<path fill-rule="evenodd" clip-rule="evenodd" d="M473.397 530.909C472.328 530.431 471.054 530.908 470.651 532.008C469.826 534.258 468.643 537.829 468.643 539.81C468.643 542.85 469.656 548.684 469.656 548.684C473.181 548.684 533.014 548.684 533.014 548.684C533.014 548.684 535.483 540.513 530.162 539.862C524.842 539.211 521.322 538.686 521.322 538.686L491.758 525.497C491.244 525.267 490.641 525.508 490.426 526.029L488.485 530.741C488.485 530.741 483.559 533.041 480.48 533.041C478.527 533.041 475.415 531.81 473.397 530.909Z" fill="#E4E4E4"/>
<path fill-rule="evenodd" clip-rule="evenodd" d="M378.622 429.808C378.622 429.808 327.235 421.431 309.782 418.351C276.618 412.499 266.947 394.64 272.665 355.675L333.769 355.675C345.899 359.18 435.131 399.031 435.131 399.031C445.835 404.348 443.841 420.025 441.885 425.19C441.765 425.506 387.755 518.01 387.755 518.01L337.768 486.144L378.716 433.563C378.716 433.563 380.338 430.294 378.622 429.808Z" fill="#5C63AB"/>
<path fill-rule="evenodd" clip-rule="evenodd" d="M215.217 404.693C218.509 398.01 234.956 312 234.956 312L259.554 312.092C259.554 312.092 231.452 403.203 229.719 407.5C227.468 413.083 231.292 421.194 233.885 426.694C234.286 427.545 234.658 428.333 234.973 429.04C231.375 430.651 229.647 428.704 227.825 426.651C225.767 424.332 223.589 421.879 218.463 424.265C216.483 425.187 214.609 426.278 212.778 427.343C206.454 431.021 200.644 434.401 192.74 429.521C191.487 428.747 190.114 425.834 193.432 423.557C201.697 417.886 213.608 407.96 215.217 404.693ZM422.386 371.18L390.564 340.115L379.995 358.415L413.085 377.938C421.382 391.018 426.255 396.669 427.704 394.892C428.926 393.394 428.366 391.752 427.85 390.24C427.448 389.062 427.073 387.962 427.588 387.07C428.764 385.034 435.408 386.2 441.665 387.577C447.923 388.953 446.475 385.877 445.145 384.272C439.231 379.496 431.645 375.132 422.386 371.18Z" fill="#B28B67"/>
<path fill-rule="evenodd" clip-rule="evenodd" d="M309.911 242.172L319.624 240.505C334.926 294.633 413.547 331.529 418.373 351.764C420.143 359.185 414.806 362.936 417.563 365.196L404.937 374.445C402.799 371.949 398.237 376.515 388.708 373.321C379.18 370.127 309.911 306.265 309.911 242.172Z" fill="#DB2721"/>
<path fill-rule="evenodd" clip-rule="evenodd" d="M292.142 230.837C289.939 230.682 288.027 232.344 287.873 234.548L287.379 241.628C269.098 255.705 223.79 297.772 211.983 376.083C210.743 384.309 212.986 388.715 214.778 392.235C216.004 394.644 217.019 396.638 216.564 399.156L233.087 403.721C233.087 401.861 235.17 400.446 237.857 398.621C241.763 395.967 246.948 392.445 248.864 385.425C250.681 378.77 253.342 370.459 256.521 361.213C256.821 373.458 259.142 384.72 264.197 394.047C276.809 417.317 349.692 391.798 357.307 368.058C361.37 355.39 355.604 344.755 347.979 330.689C338.3 312.834 325.624 289.452 326.25 249.368L327.094 237.292C327.248 235.088 325.587 233.177 323.383 233.023L292.142 230.837Z" fill="#FF4133"/>
<path fill-rule="evenodd" clip-rule="evenodd" d="M626.823 157.65C619.538 162.041 612.38 164.162 609.02 163.296C600.594 161.125 599.82 130.302 606.339 118.151C612.858 105.999 646.372 100.703 648.061 124.779C648.647 133.134 645.139 140.592 639.955 146.676L649.25 190H622.25L626.823 157.65Z" fill="#B28B67"/>
<path fill-rule="evenodd" clip-rule="evenodd" d="M608.102 113.439C608.338 111.971 607.87 111.25 613.773 107.114C619.677 102.977 629.208 98.0986 638.808 100.222C651.267 102.977 656.215 111.195 661.019 115.19C665.35 118.792 669.695 119.212 672.271 123.681C674.846 128.15 676.216 141.008 673.977 146.119C670.888 153.171 664.796 155.07 660.349 157.101C652.723 160.585 641.944 156.906 641.683 156.296C639.663 151.581 628.79 138.28 622.25 132.692C617.441 128.583 606.992 120.33 608.102 113.439Z" fill="#5C63AB"/>
<mask id="mask0" mask-type="alpha" maskUnits="userSpaceOnUse" x="608" y="99" width="68" height="60">
<path fill-rule="evenodd" clip-rule="evenodd" d="M608.102 113.439C608.338 111.971 607.87 111.25 613.773 107.114C619.677 102.977 629.208 98.0986 638.808 100.222C651.267 102.977 656.215 111.195 661.019 115.19C665.35 118.792 669.695 119.212 672.271 123.681C674.846 128.15 676.216 141.008 673.977 146.119C670.888 153.171 664.796 155.07 660.349 157.101C652.723 160.585 641.944 156.906 641.683 156.296C639.663 151.581 628.79 138.28 622.25 132.692C617.441 128.583 606.992 120.33 608.102 113.439Z" fill="white"/>
</mask>
<g mask="url(#mask0)">
<path fill-rule="evenodd" clip-rule="evenodd" d="M645.162 147.501C658.073 131.578 661.111 112.375 661.111 112.375L665 114.835C665 114.835 660.217 135.82 645.162 147.501ZM640.25 156.25C661.144 137.891 666.127 117.26 666.127 117.26L670.625 118.586C670.625 118.586 664.426 141.657 640.25 156.25Z" fill="black" fill-opacity="0.2"/>
</g>
<path fill-rule="evenodd" clip-rule="evenodd" d="M667.213 285L624.941 423.467L604.464 541.223H588.408L610.046 285H667.213Z" fill="#997659"/>
<path fill-rule="evenodd" clip-rule="evenodd" d="M682.336 285C679.465 361.026 682.844 400.241 683.486 407.148C684.129 414.055 692.928 458.842 713.76 543.542L696.651 537.655C663.729 459.973 652.51 419.6 648.734 409.399C644.958 399.199 634.929 357.732 618.648 285H682.336Z" fill="#B28B67"/>
<path fill-rule="evenodd" clip-rule="evenodd" d="M710.761 536.204C711.831 535.725 713.106 536.203 713.509 537.303C714.334 539.556 715.517 543.132 715.517 545.115C715.517 548.159 714.504 554 714.504 554C710.979 554 651.146 554 651.146 554C651.146 554 648.677 545.819 653.998 545.167C659.319 544.515 662.838 543.989 662.838 543.989L692.401 530.784C692.916 530.554 693.519 530.795 693.734 531.317L695.675 536.035C695.675 536.035 700.601 538.338 703.681 538.338C705.632 538.338 708.744 537.106 710.761 536.204Z" fill="#E4E4E4"/>
<path fill-rule="evenodd" clip-rule="evenodd" d="M605.168 536.204C606.238 535.725 607.513 536.203 607.916 537.303C608.74 539.556 609.923 543.132 609.923 545.115C609.923 548.159 608.911 554 608.911 554C605.386 554 545.553 554 545.553 554C545.553 554 543.083 545.819 548.404 545.167C553.725 544.515 557.245 543.989 557.245 543.989L586.808 530.784C587.323 530.554 587.926 530.795 588.14 531.317L590.082 536.035C590.082 536.035 595.007 538.338 598.087 538.338C600.039 538.338 603.15 537.106 605.168 536.204Z" fill="#E4E4E4"/>
<path fill-rule="evenodd" clip-rule="evenodd" d="M672.83 285L654.857 355.547H599.959L608.144 285H672.83Z" fill="#69A1AC"/>
<path fill-rule="evenodd" clip-rule="evenodd" d="M682.94 285C691.811 311.642 686.31 355.547 686.31 355.547H630.289L614.884 285H682.94Z" fill="#89C5CC"/>
<path fill-rule="evenodd" clip-rule="evenodd" d="M512.054 172.841L556.059 179.56L547.798 199.004L512.255 184.33C496.801 185.573 489.347 185.082 489.894 182.857C490.356 180.981 492.006 180.44 493.526 179.942C494.709 179.555 495.814 179.193 496.217 178.245C497.136 176.082 492.201 171.48 487.331 167.312C482.461 163.145 485.792 162.451 487.876 162.547C495.257 164.396 503.316 167.827 512.054 172.841ZM538.36 284.395L570.235 253.352L580.815 271.633L547.672 291.145C539.36 304.213 534.478 309.861 533.027 308.086C531.804 306.59 532.366 304.949 532.882 303.438C533.285 302.261 533.661 301.162 533.145 300.272C531.968 298.238 525.315 299.404 519.048 300.781C512.781 302.158 514.232 299.084 515.564 297.48C521.488 292.707 529.086 288.346 538.36 284.395Z" fill="#B28B67"/>
<path fill-rule="evenodd" clip-rule="evenodd" d="M615.573 175.444C601.283 214.183 577.18 245.728 540.645 280.132L558.436 295.263C601.371 272.093 623.853 258.595 630.81 222.914C632.556 213.959 630.789 186.443 630.542 171.869L615.573 175.444Z" fill="#2026A2"/>
<path fill-rule="evenodd" clip-rule="evenodd" d="M686.538 287.848L600.756 299.904C600.756 299.904 617.432 207.073 613.416 173.916C613.28 172.789 615.081 170.516 616.037 170.646C626.529 172.073 637.336 165.483 637.336 165.483C662.261 195.273 674.943 234.482 686.538 287.848Z" fill="#F2F2F2"/>
<path fill-rule="evenodd" clip-rule="evenodd" d="M622.819 218.317C617.484 277.568 624.701 324.442 654.28 320.285L700.019 313.857C700.434 264.103 671.846 199.217 649.356 167.623C648.497 166.416 646.713 164.165 643.324 164.642L630.033 166.509C630.03 166.528 630.027 166.546 630.023 166.565C626.028 167.159 621.645 167.924 616.897 168.753C592.457 173.017 558.378 178.964 518.117 172.032L516.759 195.327C554.67 212.764 592.311 225.109 622.819 218.317Z" fill="#1F28CF"/>
</g>
<defs>
<clipPath id="clip0">
<rect width="959" height="595" fill="white"/>
</clipPath>
</defs>
</svg>
