<svg width="616" height="120" viewBox="0 0 616 120" fill="none" xmlns="http://www.w3.org/2000/svg">
<g clip-path="url(#clip0)">
<g filter="url(#filter0_d)">
<rect x="12" y="13" width="94" height="94" rx="10" fill="#ED6664"/>
</g>
<path d="M67.344 25.936H49.872L53.232 72.688H63.984L67.344 25.936ZM50.256 86.704C50.256 91.216 53.904 94.96 58.512 94.96C63.12 94.96 66.864 91.216 66.864 86.704C66.864 82.096 63.12 78.352 58.512 78.352C53.904 78.352 50.256 82.096 50.256 86.704Z" fill="white"/>
<path d="M154.88 60.68C154.88 78.6 168.4 90.2 184.4 90.2C189.68 90.2 194.8 88.92 199.12 86.52L206.08 94.2L214.4 87.16L207.44 79.56C211.44 74.68 213.84 68.28 213.84 60.68C213.84 42.68 200.32 31.08 184.4 31.08C168.4 31.08 154.88 42.68 154.88 60.68ZM168 60.6C168 48.76 176.48 43.4 184.4 43.4C192.24 43.4 200.72 48.76 200.72 60.6C200.72 64.28 199.92 67.24 198.56 69.72L190.24 60.6L181.84 67.64L190.16 76.76C188.24 77.4 186.32 77.72 184.4 77.72C176.48 77.72 168 72.44 168 60.6ZM247.337 89H259.017C258.937 88.36 258.617 85.48 258.617 81.88V49.24H246.457V71.88C246.457 75.88 243.897 78.68 239.817 78.68C235.497 78.68 233.417 75.64 233.417 71.8V49.24H221.257V74.36C221.257 82.84 226.697 89.88 236.377 89.88C240.377 89.88 244.937 88.44 247.017 85C247.017 86.04 247.177 88.28 247.337 89ZM281.473 89V49.24H269.313V89H281.473ZM268.273 37.08C268.273 41 271.473 44.2 275.313 44.2C279.313 44.2 282.513 41 282.513 37.08C282.513 33.16 279.313 29.96 275.313 29.96C271.473 29.96 268.273 33.16 268.273 37.08ZM310.446 59.24C315.166 59.24 317.566 62.12 318.446 65.16L329.326 61.88C327.566 54.76 321.166 48.04 310.206 48.04C298.526 48.04 289.246 56.76 289.246 69.16C289.246 81.48 298.766 90.2 310.606 90.2C321.246 90.2 327.806 83.32 329.566 76.36L318.846 73.08C317.966 76.04 315.326 79 310.606 79C305.566 79 301.326 75.48 301.326 69.16C301.326 62.76 305.406 59.24 310.446 59.24ZM376.969 49.24H361.209L349.129 62.6V31.08H336.969V89H349.129V79.24L353.049 75L362.409 89H377.289L361.449 65.96L376.969 49.24ZM381.56 81.96C381.56 85.96 384.36 89.16 388.76 89.16C389.72 89.16 390.6 88.92 391 88.6C390.84 93.4 386.44 96.6 383 97.24V102.92C389.4 102.2 398.2 96.92 398.2 84.52C398.2 79.24 395.16 74.52 389.56 74.52C385 74.52 381.56 77.72 381.56 81.96ZM441.271 89V67.8H462.231V56.28H441.191V44.28H465.111V32.28H428.551V89H441.271ZM488.959 79C484.399 79 479.999 75.72 479.999 69.08C479.999 62.36 484.399 59.24 488.959 59.24C493.599 59.24 497.919 62.36 497.919 69.08C497.919 75.8 493.599 79 488.959 79ZM488.959 48.04C477.119 48.04 467.839 56.76 467.839 69.08C467.839 81.4 477.119 90.2 488.959 90.2C500.879 90.2 510.079 81.4 510.079 69.08C510.079 56.76 500.879 48.04 488.959 48.04ZM530.067 66.2C530.067 62.2 532.627 59.24 536.627 59.24C541.027 59.24 543.107 62.2 543.107 66.12V89H555.267V64.04C555.267 55.32 550.787 48.2 540.787 48.2C536.707 48.2 531.827 50.04 529.667 53.8V49.24H517.907V89H530.067V66.2ZM580.045 37.64H569.165V42.76C569.165 46.44 567.165 49.24 563.005 49.24H561.005V59.88H568.045V76.92C568.045 84.84 573.085 89.72 581.325 89.72C585.165 89.72 587.165 88.84 587.645 88.6V78.52C586.925 78.68 585.725 78.92 584.445 78.92C581.805 78.92 580.045 78.04 580.045 74.76V59.88H587.805V49.24H580.045V37.64ZM611.792 32.28H597.232L600.032 71.24H608.992L611.792 32.28ZM597.552 82.92C597.552 86.68 600.592 89.8 604.432 89.8C608.272 89.8 611.392 86.68 611.392 82.92C611.392 79.08 608.272 75.96 604.432 75.96C600.592 75.96 597.552 79.08 597.552 82.92Z" fill="#484848"/>
</g>
<defs>
<filter id="filter0_d" x="-3" y="-2" width="124" height="124" filterUnits="userSpaceOnUse" color-interpolation-filters="sRGB">
<feFlood flood-opacity="0" result="BackgroundImageFix"/>
<feColorMatrix in="SourceAlpha" type="matrix" values="0 0 0 0 0 0 0 0 0 0 0 0 0 0 0 0 0 0 127 0"/>
<feOffset/>
<feGaussianBlur stdDeviation="7.5"/>
<feColorMatrix type="matrix" values="0 0 0 0 0 0 0 0 0 0 0 0 0 0 0 0 0 0 0.15 0"/>
<feBlend mode="normal" in2="BackgroundImageFix" result="effect1_dropShadow"/>
<feBlend mode="normal" in="SourceGraphic" in2="effect1_dropShadow" result="shape"/>
</filter>
<clipPath id="clip0">
<rect width="616" height="120" fill="white"/>
</clipPath>
</defs>
</svg>
