<svg width="1440" height="888" viewBox="0 0 1440 888" fill="none" xmlns="http://www.w3.org/2000/svg">
<path fill-rule="evenodd" clip-rule="evenodd" d="M233.48 653.501C258.777 555.697 514.75 611.414 682.564 581.178C850.377 550.942 1048.91 410.125 1180.31 479.104C1311.7 548.083 1171.9 714.826 870.537 752.454C569.172 790.082 208.183 751.305 233.48 653.501Z" fill="#F2F2F2"/>
<g opacity="0.5">
<path fill-rule="evenodd" clip-rule="evenodd" d="M300.338 196.701C297.898 198.53 298.846 205.031 298.795 207.436C298.716 211.182 299.027 214.893 299.444 218.625C299.723 221.124 301.299 244.968 305.682 243.137C308.153 242.105 306.604 235.207 306.6 233.026C306.59 228.175 306.321 223.337 305.89 218.497C305.49 214.004 305.238 209.564 305.469 205.062C305.525 203.963 306.894 191.77 300.338 196.701" fill="#89C5CC"/>
<path fill-rule="evenodd" clip-rule="evenodd" d="M406.608 193.761C385.644 193.887 364.689 194.663 343.734 195.139C333.651 195.368 323.575 195.659 313.502 196.078C310.07 196.221 302.709 195.396 299.85 196.769C293.502 199.817 303.739 200.53 306.468 200.456C347.936 199.327 389.419 197.84 430.922 197.77C451.282 197.736 471.631 198.171 491.992 198.073C499.775 198.036 508.394 195.518 510.36 202.32C512.578 209.995 510.029 218.54 509.335 226.253C508.872 231.401 509.037 236.442 509.346 241.586C509.544 244.882 509.029 248.595 509.804 251.829C510.551 254.943 513.533 256.811 516.267 253.323C517.899 251.238 517.087 246.091 517.196 243.676C517.342 240.424 517.204 237.173 517.204 233.92C517.203 225.98 518.696 218.072 518.499 210.134C518.372 205.015 518.01 195.736 509.41 194.506C499.941 193.151 488.301 194.514 478.611 194.43C454.599 194.225 430.628 193.621 406.608 193.761" fill="#89C5CC"/>
<path fill-rule="evenodd" clip-rule="evenodd" d="M348.842 243.421C340.937 243.421 333.032 243.457 325.127 243.555C318.348 243.64 307.69 242.579 301.38 244.4C297.061 245.646 295.913 249.267 301.38 250.231C307.343 251.283 316.329 249.563 322.567 249.481C353.848 249.066 385.431 248.526 416.668 250.011C445.938 251.402 475.773 252.751 505.086 251.283C507.552 251.159 520.131 250.783 514.391 247.243C511.043 245.177 497.471 246.536 493.119 246.437C477.769 246.09 462.404 246.012 447.06 245.576C431.915 245.144 416.838 243.866 401.689 243.549C384.088 243.182 366.449 243.421 348.842 243.421" fill="#89C5CC"/>
<path fill-rule="evenodd" clip-rule="evenodd" d="M340.933 209.666C353.254 210.07 365.444 223.485 352.977 229.968C341.282 236.052 319.364 229.385 325.867 217.588C324.932 219.294 327.049 215.735 327.076 215.711C328.312 214.618 330.533 213.407 332.057 212.544C333.802 211.557 335.618 210.471 337.721 209.977C339.102 209.652 338.885 210.873 340.933 209.666M334.932 204.827C329.166 206.518 326.534 208.425 322.571 211.875C319.829 214.263 316.334 215.519 316.365 218.746C316.371 219.46 317.593 220.245 317.804 220.933C318.096 221.884 317.758 223.102 317.99 224.112C320.375 234.535 336.94 238.049 349.065 236.081C359.627 234.367 367.526 226.755 365.079 218.478C362.616 210.146 346.159 201.531 334.932 204.827" fill="#89C5CC"/>
<path fill-rule="evenodd" clip-rule="evenodd" d="M329.796 219.378C329.796 223.128 337.685 223.128 337.685 219.378C337.685 215.671 329.796 215.512 329.796 219.378" fill="#89C5CC"/>
<path fill-rule="evenodd" clip-rule="evenodd" d="M339.666 218.619C339.666 221.599 345.935 221.599 345.935 218.619C345.935 215.673 339.666 215.548 339.666 218.619" fill="#89C5CC"/>
<path fill-rule="evenodd" clip-rule="evenodd" d="M341.607 224.764C339.6 225.343 337.053 224.142 335.405 224.933C332.487 226.336 335.413 227.605 336.977 228.169C344.021 230.706 345.274 223.709 341.607 224.764" fill="#89C5CC"/>
<path fill-rule="evenodd" clip-rule="evenodd" d="M449.178 216.454C448.968 216.52 448.22 216.758 449.178 216.454ZM418.504 213.088C413.232 213.981 408.781 217.677 403.054 217.183C398.664 216.804 395.692 213.624 391.359 213.162C385.816 212.57 370.73 222.064 378.662 223.692C383.289 224.643 385.856 218.294 389.945 217.957C393.179 217.69 397.577 220.667 400.928 221.091C407.18 221.882 411.474 219.297 416.962 217.629C422.926 215.818 426.319 217.449 431.506 219.463C435.6 221.052 439.455 222.087 444.14 221.431C448.537 220.816 454.06 217.422 458.485 217.77C462.819 218.112 465.913 221.507 470.372 221.823C472.21 221.952 474.946 222.423 474.637 220.293C474.39 218.588 471.856 218.877 470.271 218.257C466.194 216.664 462.381 213.84 457.461 214.081C453.76 214.263 450.39 216.215 446.98 217.149C435.81 220.207 429.531 211.231 418.504 213.088" fill="#89C5CC"/>
<path fill-rule="evenodd" clip-rule="evenodd" d="M427.835 267.094C406.289 267.243 384.67 267.483 363.185 268.78C358.091 269.087 306.079 272.774 306.178 273.039C306.36 273.531 313.05 274.281 313.008 274.397C312.557 273.558 311.526 273.21 309.916 273.355C359.246 273.355 408.418 270.039 457.812 270.636C470.223 270.785 482.681 270.723 495.084 271.017C498.18 271.09 505.852 272.756 508.283 271.706C514.665 268.951 503.071 268.633 501.151 268.518C476.843 267.058 452.212 266.912 427.835 267.094" fill="#69A1AC"/>
<path fill-rule="evenodd" clip-rule="evenodd" d="M299.792 274.954C296.571 277.378 299.537 286.101 299.664 289.379C299.847 294.119 299.696 298.892 300.25 303.619C300.882 309.019 301.863 314.772 303.75 320.011C304.79 322.897 308.438 327.484 309.884 322.24C310.916 318.494 309.348 313.525 308.803 309.709C308.074 304.604 307.897 299.567 307.87 294.437C307.845 289.967 307.731 285.479 307.242 281.024C306.989 278.71 305.439 270.737 299.792 274.954" fill="#69A1AC"/>
<path fill-rule="evenodd" clip-rule="evenodd" d="M380.832 319.374C365.542 319.571 350.219 319.842 334.955 320.559C328.699 320.853 322.447 321.291 316.214 321.788C314.942 321.889 300.864 322.318 307.155 326.219C309.994 327.98 321.674 325.545 325.532 325.291C332.02 324.864 338.507 324.587 345.013 324.38C360.09 323.899 375.213 323.475 390.305 323.671C417.867 324.03 445.251 324.191 472.821 323.729C476.738 323.664 507.425 324.279 508.467 321.22C509.307 318.754 498.333 319.885 496.332 319.93C488.992 320.095 481.651 320.056 474.308 320.028C443.201 319.908 411.914 318.98 380.832 319.374" fill="#69A1AC"/>
<path fill-rule="evenodd" clip-rule="evenodd" d="M503.272 270.863C503.757 281.083 506.076 291.292 506.817 301.543C507.155 306.23 507.555 310.912 507.86 315.6C507.959 317.112 507.147 320.755 509.529 321.625C512.796 322.818 513.236 320.414 513.848 318.788C515.614 314.091 514.419 307.99 514.259 303.165C514.104 298.493 514.093 293.813 513.634 289.149C513.164 284.385 511.886 279.71 511.293 274.963C511.043 272.955 511.919 269.613 509.08 268.367C506.626 267.29 503.166 268.647 503.272 270.863" fill="#69A1AC"/>
<path fill-rule="evenodd" clip-rule="evenodd" d="M352.986 287.864C353.044 287.898 353.102 287.932 353.16 287.966C353.102 287.932 353.044 287.898 352.986 287.864M339.992 284.836C344.838 285.875 348.817 285.488 353.446 288.136C357.282 290.332 361.218 293.544 362.491 297.094C365.431 305.297 355.463 309.792 346.118 309.881C336.547 309.971 322.379 308.304 322.869 299.093C323.245 292.016 330.128 285.111 339.992 284.836M340.334 280.201C327.769 280.67 317.634 291.264 317.743 300.18C317.874 310.987 334.185 313.772 345.771 313.847C358.848 313.931 371.887 307.152 368.383 296.112C365.576 287.266 352.416 279.729 340.334 280.201" fill="#69A1AC"/>
<path fill-rule="evenodd" clip-rule="evenodd" d="M327.695 294.711C327.695 297.724 334.037 297.724 334.037 294.711C334.037 291.732 327.695 291.604 327.695 294.711" fill="#69A1AC"/>
<path fill-rule="evenodd" clip-rule="evenodd" d="M340.998 293.388C340.998 296.426 347.39 296.426 347.39 293.388C347.39 290.386 340.998 290.257 340.998 293.388" fill="#69A1AC"/>
<path fill-rule="evenodd" clip-rule="evenodd" d="M333.664 300.262C329.536 303.356 344.038 308.78 347.458 304.476C350.267 300.941 344.151 302.113 341.983 301.922C339.627 301.713 335.587 298.822 333.664 300.262" fill="#69A1AC"/>
<path fill-rule="evenodd" clip-rule="evenodd" d="M449.604 293.451C449.206 293.576 449.206 293.576 449.604 293.451ZM395.148 288.414C390.968 289.002 377.251 292.476 377.066 296.199C376.728 302.966 390.161 296.035 393.078 295.145C401.003 292.727 405.167 297.659 413.127 297.919C420.041 298.146 426.398 293.703 432.911 294.229C439.735 294.779 443.017 300.229 450.895 297.335C455.062 295.805 454.957 293.445 450.279 293.222C447.451 293.088 445.508 293.965 442.56 293.052C437.95 291.624 436.093 289.3 430.576 289.669C426.413 289.947 422.65 291.709 418.586 292.391C409.281 293.952 404.119 287.152 395.148 288.414" fill="#69A1AC"/>
<path fill-rule="evenodd" clip-rule="evenodd" d="M481.706 296.389C481.419 296.479 481.419 296.479 481.706 296.389ZM482.761 293.571C482.807 293.586 483.122 293.914 482.761 293.571ZM477.969 291.42C477.789 291.524 477.789 291.524 477.969 291.42ZM478.074 291.394C479.003 291.811 486.473 295.646 481.047 296.549C478.293 297.007 476.014 292.847 478.074 291.394M475.601 287.145C463.635 291.241 476.511 305.899 485.902 299.944C489.853 297.438 490.373 292.372 486.529 289.762C484.226 288.197 478.727 286.073 475.601 287.145" fill="#69A1AC"/>
<path fill-rule="evenodd" clip-rule="evenodd" d="M363.275 344.908C348.344 344.911 333.281 344.676 318.37 345.34C315.861 345.452 306.302 345.094 305.009 347.063C302.643 350.665 312.479 348.877 313.908 348.769C343.598 346.538 374.611 347.822 404.399 348.458C428.76 348.978 452.992 349.3 477.325 350.243C483.721 350.491 490.111 350.765 496.503 351.054C498.586 351.148 503.828 352.185 504.268 349.687C504.674 347.375 498.134 347.897 496.5 347.832C483.508 347.319 470.525 346.781 457.536 346.232C426.273 344.909 394.588 344.904 363.275 344.908" fill="#89C5CC"/>
<path fill-rule="evenodd" clip-rule="evenodd" d="M304.529 348.913C301.74 350.995 303.048 358.942 302.97 361.57C302.834 366.164 302.545 370.755 302.415 375.348C302.281 380.149 302.468 384.972 302.846 389.765C303.004 391.778 305.205 401.506 308.669 395.939C310.217 393.451 308.632 386.522 308.656 383.703C308.698 378.573 309.066 373.465 309.406 368.342C309.699 363.938 309.709 359.53 309.966 355.125C310.047 353.721 310.268 344.592 304.529 348.913" fill="#89C5CC"/>
<path fill-rule="evenodd" clip-rule="evenodd" d="M506.78 389.952C492.249 391.07 477.485 390.542 462.899 391.368C450.328 392.079 437.768 392.37 425.165 392.571C396.626 393.023 368.038 393.464 339.582 395.25C333.096 395.656 326.619 396.088 320.116 396.306C316.864 396.415 303.218 395.304 302.202 397.878C300.471 402.261 315.064 400.527 318.212 400.458C325.134 400.308 332.023 399.932 338.926 399.537C367.941 397.878 397.067 397.382 426.145 396.692C441.959 396.317 457.663 395.448 473.442 394.658C481.306 394.264 489.193 394.251 497.057 393.87C499.114 393.77 506.398 393.967 507.878 392.724C508.895 391.87 509.152 389.786 506.78 389.952" fill="#89C5CC"/>
<path fill-rule="evenodd" clip-rule="evenodd" d="M501.854 349.659C502.353 360.121 503.14 370.574 503.61 381.036C503.752 384.182 502.486 389.821 504.819 392.595C508.571 397.056 511.5 392.335 512.187 389.555C514.356 380.781 512.024 371.089 511.419 362.261C511.188 358.894 512.581 351.398 510.413 348.384C508.348 345.512 501.669 345.801 501.854 349.659" fill="#89C5CC"/>
<path fill-rule="evenodd" clip-rule="evenodd" d="M477.459 364.559C483.026 365.692 483.839 374.779 477.557 375.451C468.207 376.451 472.296 366.433 477.459 364.559M475.899 360.946C474.201 360.906 470.281 360.555 469.234 361.592C468.359 362.461 469.244 364.293 469.142 365.12C468.773 368.076 465.572 369.783 467.003 373.274C467.975 375.643 470.576 377.869 473.747 378.692C490.479 383.033 490.275 358.762 475.899 360.946" fill="#89C5CC"/>
<path fill-rule="evenodd" clip-rule="evenodd" d="M324.84 362.576C324.799 362.616 324.757 362.656 324.716 362.696C324.757 362.656 324.799 362.616 324.84 362.576M337.981 357.327C337.916 356.907 337.85 356.486 337.785 356.066C346.857 359.281 354.075 365.261 351.063 373.288C348.765 379.412 340.461 381.584 332.724 380.072C324.16 378.398 320.068 373.099 322.377 366.591C323.442 363.589 326.714 359.554 330.942 358.589C332.911 358.139 337.264 359.285 337.981 357.327M332.677 354.785C330.382 354.901 328.148 355.619 326.276 356.6C328.029 355.487 330.365 354.824 332.677 354.785M332.742 350.829C327.074 350.959 323.359 353.536 319.997 356.63C318.942 357.601 315.374 360.176 315.816 361.485C316.165 362.519 317.079 364.032 319.004 362.879C308.924 377.962 334.964 390.826 350.861 380.338C365.698 370.549 350.978 350.37 332.742 350.829" fill="#89C5CC"/>
<path fill-rule="evenodd" clip-rule="evenodd" d="M327.592 364.84C327.592 366.849 331.745 366.849 331.745 364.84C331.745 362.832 327.592 362.832 327.592 364.84" fill="#89C5CC"/>
<path fill-rule="evenodd" clip-rule="evenodd" d="M334.679 365.183C334.679 367.224 338.899 367.224 338.899 365.183C338.899 363.142 334.679 363.142 334.679 365.183" fill="#89C5CC"/>
<path fill-rule="evenodd" clip-rule="evenodd" d="M337.895 372.352C335.921 372.472 328.695 371.968 327.426 373.267C325.307 375.436 328.69 375.511 330.351 375.746C331.848 375.957 338.354 375.838 339.271 374.84C340.081 373.958 339.892 372.224 337.895 372.352" fill="#89C5CC"/>
<path fill-rule="evenodd" clip-rule="evenodd" d="M424.963 366.725C424.624 366.831 424.624 366.831 424.963 366.725ZM397.658 365.226C393.209 365.472 389.441 367.393 385.188 368.159C380.648 368.978 378.684 367.473 374.556 366.487C370.261 365.463 367.207 365.867 363.755 368.069C361.8 369.317 357.509 372.188 358.731 374.405C361.53 379.478 367.866 371.224 370.846 370.84C375.494 370.242 379.63 373.293 384.99 372.42C389.848 371.63 394.158 369.126 399.231 369.099C403.474 369.076 407.472 370.819 411.66 371.24C418.054 371.885 422.253 370.18 428.163 368.915C433.289 367.818 436.883 369.264 441.704 370.481C443.907 371.037 451.259 373.059 449.905 369.393C449.523 368.357 439.834 366.506 438.333 366.149C433.036 364.893 429.682 365.383 424.636 366.827C420.428 368.032 416.889 368.619 412.377 367.956C407.406 367.225 402.886 364.928 397.658 365.226" fill="#89C5CC"/>
</g>
<g opacity="0.5">
<path fill-rule="evenodd" clip-rule="evenodd" d="M602.335 197.096C603.053 185.5 604.04 173.92 604.561 162.316C604.818 156.567 605.02 150.816 605.215 145.065C605.259 143.785 605.303 142.505 605.341 141.224C605.468 136.874 604.781 136.518 610.612 136.132C636.627 134.408 662.745 133.836 688.791 132.276C720.203 130.395 751.78 129.096 783.281 128.514C797.28 128.255 811.338 127.718 825.338 128.045C828.441 128.117 834.53 127.511 835.751 129.321C836.279 130.104 835.172 132.795 835.031 133.697C834.592 136.517 834.183 139.346 833.93 142.179C832.441 158.889 833.329 176.021 837.639 192.478C827.528 188.198 814.754 184.516 802.97 185.247C790.956 185.992 781.969 191.203 772.353 196C766.913 198.713 765.081 199.426 759.654 196.798C754.978 194.533 750.553 191.943 746.141 189.402C739.332 185.479 732.907 181.226 726.304 177.113C714.164 169.552 697.438 158.79 680.671 161.958C668.692 164.222 657.63 169.165 647.233 174.003C631.785 181.19 617.802 189.991 602.335 197.096M810.532 122.895C750.847 122.895 691.609 127.239 632.092 129.589C625.876 129.834 619.681 130.195 613.487 130.644C609.359 130.943 599.265 129.687 596.559 132.335C594.755 134.102 596.305 134.367 596.559 136.046C596.88 138.161 596.69 140.668 596.607 142.907C596.408 148.303 596.2 153.698 596.036 159.094C595.42 179.488 595.035 199.878 596.135 220.266C596.374 224.713 598.533 230.869 597.352 235.19C596.498 238.318 593.64 240.222 600.23 240.8C606.714 241.369 614.644 239.922 621.134 239.458C627.662 238.992 634.189 238.486 640.725 238.081C669.142 236.323 697.834 236.589 726.325 236.005C755.073 235.415 783.831 235.378 812.588 235.366C824.621 235.361 838.37 235.868 850.11 233.382C854.241 232.507 854.909 232.076 853.891 229C853.697 228.416 852.45 228.2 852.084 227.145C851.586 225.709 851.842 223.963 851.725 222.468C851.345 217.586 851.213 212.695 850.906 207.809C850.395 199.646 848.521 191.724 847.135 183.643C845.535 174.311 845.617 164.835 845.584 155.442C845.566 150.232 845.744 145.039 846.301 139.843C846.659 136.511 848.844 131.535 847.736 128.428C847.184 126.88 846.28 125.653 844.135 124.987C842.776 124.565 841.633 124.895 840.29 124.788C838.697 124.662 837.702 124.494 835.793 124.169C827.614 122.777 818.867 122.895 810.532 122.895" fill="#69A1AC"/>
<path fill-rule="evenodd" clip-rule="evenodd" d="M777.502 145.081C777.497 148.329 776.822 153.121 778.816 156.179C781.346 160.058 784.51 158.845 785.349 155.2C785.829 153.112 785.817 146.931 784.923 145.081C783.659 142.463 777.502 140.679 777.502 145.081" fill="#89C5CC"/>
<path fill-rule="evenodd" clip-rule="evenodd" d="M784.759 146.335C780.698 146.443 768.872 145.711 766.124 148.162C761.411 152.367 769.616 153.112 773.138 152.876C777.215 152.604 789.813 153.268 792.543 150.814C797.11 146.708 787.952 146.248 784.759 146.335" fill="#89C5CC"/>
<path fill-rule="evenodd" clip-rule="evenodd" d="M627.169 254.828C645.022 257.156 639.468 277.592 622.575 272.859C616.689 271.209 608.016 266.444 611.269 260.828C613.699 256.633 621.62 254.428 627.169 254.828M619.778 248.474C608.167 249.941 600.229 259.374 604.21 267.603C608.05 275.541 622.617 281.354 633.359 278.501C643.614 275.777 648.73 265.533 645.273 258.04C641.66 250.21 629.892 247.195 619.778 248.474" fill="#89C5CC"/>
<path fill-rule="evenodd" clip-rule="evenodd" d="M728.369 257.218C723.925 257.495 720.083 259.832 715.61 260.245C711.428 260.632 707.963 259.558 704.047 258.699C699.314 257.661 694.973 257.205 690.136 258.127C686.44 258.832 682.794 260.72 678.955 260.948C671.4 261.396 662.619 254.924 656.721 262.244C653.894 265.753 657.999 268.013 662.229 266.376C666.638 264.671 664.473 264.06 669.943 265.068C674.506 265.908 678.194 266.364 682.765 265.187C686.906 264.12 690.541 262.169 695.041 261.95C699.448 261.735 703.281 263.242 707.493 263.893C712.673 264.692 717.257 264.087 722.165 262.868C726.833 261.708 728.696 261.074 733.407 262.109C736.39 262.764 742.906 264.845 745.809 263.168C750.83 260.269 744.109 259.845 741.462 259.432C737.201 258.77 732.791 256.946 728.369 257.218" fill="#89C5CC"/>
<path fill-rule="evenodd" clip-rule="evenodd" d="M830.087 255.271C830.123 255.291 830.158 255.312 830.193 255.332C830.158 255.312 830.122 255.291 830.087 255.271M825.724 254.585C832.213 254.899 839.23 263.774 830.632 264.089C824.58 264.311 817.809 256.539 825.724 254.585M824.814 247.323C804.294 251.625 813.674 273.344 833.467 270.835C842.456 269.695 845.503 261.876 842.531 256.088C841.255 253.602 838.766 251.506 835.792 250.075C833.598 249.02 827.321 246.799 824.814 247.323" fill="#89C5CC"/>
<path fill-rule="evenodd" clip-rule="evenodd" d="M729.082 292.664C747.138 292.199 765.195 291.734 783.27 291.608C793.066 291.54 802.808 291.668 812.59 292.09C816.928 292.276 821.264 292.457 825.605 292.595C826.353 292.618 827.388 292.58 828.53 292.538C831.217 292.439 834.498 292.318 836.041 292.93C844.676 296.36 827.085 296.736 824.946 296.709C820.157 296.648 815.373 296.471 810.589 296.293C806.408 296.138 802.226 295.983 798.041 295.906C771.192 295.411 744.179 296.316 717.284 297.218C711.119 297.425 704.96 297.631 698.81 297.82C692.281 298.022 685.754 298.152 679.227 298.282L679.227 298.282C669.896 298.468 660.567 298.654 651.237 299.048C647.674 299.198 644.112 299.357 640.55 299.516L640.55 299.516C635.447 299.744 630.344 299.972 625.239 300.174C621.243 300.332 617.245 300.486 613.243 300.561C612.523 300.575 611.584 300.65 610.559 300.732H610.559C608.078 300.931 605.093 301.17 603.481 300.675C601.54 300.08 599.972 299.247 601.038 297.482C601.94 295.99 605.218 296.169 607.609 296.299C608.261 296.335 608.847 296.367 609.301 296.36C616.94 296.249 624.561 295.927 632.186 295.576C634.976 295.448 637.764 295.317 640.552 295.185C655.068 294.499 669.57 293.814 684.123 293.628C699.115 293.436 714.098 293.05 729.082 292.664ZM823.386 381.884C825.117 381.869 826.847 381.853 828.578 381.837C831.259 382.012 832.457 384.125 830.737 385.748C829.419 386.992 824.347 387.048 821.041 387.085H821.041H821.041C820.125 387.095 819.345 387.104 818.817 387.136C810.187 387.656 801.573 387.891 792.917 387.953C774.689 388.083 756.529 388.67 738.33 389.449C719.701 390.246 701.056 390.546 682.41 390.846H682.41H682.41L682.409 390.846H682.409C668.691 391.067 654.973 391.287 641.261 391.706C633.408 391.946 625.555 392.125 617.698 392.28C616.854 392.296 615.731 392.387 614.461 392.49L614.461 392.49C609.498 392.893 602.287 393.477 600.653 390.518C599.203 387.892 601.219 386.684 604.166 386.134C603.701 384.579 603.787 382.394 603.836 381.142C603.851 380.766 603.862 380.474 603.855 380.309C603.78 378.739 603.729 377.169 603.677 375.6C603.619 373.821 603.56 372.042 603.469 370.264C603.386 368.651 603.309 367.035 603.232 365.419C602.928 359.045 602.623 352.656 601.97 346.308C601.669 343.378 601.19 340.482 600.713 337.591C599.95 332.976 599.19 328.372 599.155 323.66C599.148 322.813 599.092 321.753 599.028 320.557C598.702 314.439 598.186 304.768 603.244 301.822C612.163 297.915 610.4 309.193 609.613 314.226C609.483 315.057 609.38 315.718 609.356 316.112C608.843 324.481 609.538 332.481 610.66 340.798C611.418 346.414 610.975 352.012 610.532 357.618C610.374 359.621 610.216 361.625 610.112 363.631C610.061 364.623 610.015 365.615 609.969 366.607C609.829 369.66 609.689 372.709 609.382 375.758C609.349 376.088 609.338 376.721 609.324 377.529C609.284 379.809 609.22 383.487 608.57 385.719C609.954 385.674 611.297 385.686 612.406 385.695H612.407C613.114 385.7 613.726 385.705 614.193 385.695C616.322 385.646 618.45 385.6 620.579 385.553L620.582 385.553C626.871 385.414 633.159 385.276 639.446 385.099C654.29 384.68 669.138 384.54 683.986 384.4H683.986C701.523 384.234 719.06 384.069 736.589 383.444C765.478 382.413 794.467 382.148 823.386 381.884ZM828.745 300.066C828.731 314.402 830.207 328.345 831.932 342.624C832.999 351.456 833.855 360.322 834.535 369.176C834.567 369.586 834.562 370.27 834.556 371.128V371.128C834.522 376.024 834.447 386.574 840.892 384.051C845.759 382.145 843.889 371.095 842.854 364.981C842.627 363.64 842.44 362.536 842.373 361.819C842.232 360.29 842.092 358.761 841.952 357.233L841.952 357.23C841.304 350.132 840.657 343.041 839.804 335.951C839.744 335.453 839.684 334.955 839.624 334.457C838.637 326.268 837.65 318.085 837.475 309.858C837.461 309.178 837.548 308.23 837.646 307.159C837.931 304.062 838.311 299.938 836.597 298.293C834.186 295.979 828.751 296.663 828.745 300.066Z" fill="#69A1AC"/>
<path fill-rule="evenodd" clip-rule="evenodd" d="M729.907 335.211C752.97 327.377 776.303 319.452 800.285 313.809C802.019 313.402 803.115 314.744 802.721 315.87C802.316 317.03 798.564 318.02 796.076 318.677C795.332 318.873 794.7 319.04 794.306 319.172C790.955 320.295 787.597 321.405 784.238 322.514C780.799 323.65 777.36 324.786 773.929 325.937C766.797 328.33 759.657 330.712 752.518 333.094C744.872 335.645 737.226 338.196 729.589 340.76C729.299 340.857 729.01 340.954 728.72 341.052C739.105 343.823 749.431 346.717 759.712 349.699C763.225 350.718 766.726 351.758 770.228 352.798C772.209 353.387 774.19 353.975 776.173 354.56C776.819 354.75 777.943 355.008 779.294 355.318C783.697 356.327 790.508 357.889 791.012 359.466C791.831 362.035 782.428 359.55 778.88 358.612C778.409 358.487 778.042 358.39 777.815 358.336C772.579 357.08 767.407 355.68 762.237 354.281L761.522 354.087C757.424 352.979 753.333 351.859 749.241 350.739C741.249 348.551 733.258 346.363 725.223 344.264C724.087 343.967 722.95 343.671 721.812 343.377C708.917 347.725 696.048 352.115 683.221 356.575C676.343 358.967 669.502 361.414 662.679 363.894C661.19 364.435 659.347 365.272 657.344 366.181C652.542 368.359 646.827 370.953 642.896 370.888C640.788 370.853 639.368 370.514 639.147 368.595C638.921 366.616 642.304 365.578 644.736 364.831C645.318 364.652 645.846 364.49 646.257 364.336C653.548 361.599 660.885 358.93 668.243 356.295C682.856 351.062 697.606 346.038 712.409 341.114C712.494 341.086 712.579 341.057 712.665 341.029C704.455 338.943 696.223 336.907 687.972 334.914C687.148 334.715 685.459 334.363 683.239 333.902C672.751 331.721 650.408 327.075 651.403 324.361C652.543 321.257 673.49 326.931 682.764 329.443C684.502 329.913 685.83 330.273 686.541 330.443C697.628 333.096 708.685 335.824 719.684 338.676C723.087 337.528 726.494 336.37 729.907 335.211Z" fill="#89C5CC"/>
<path fill-rule="evenodd" clip-rule="evenodd" d="M631.086 403.391C637.837 404.279 642.599 409.141 641.858 414.233C640.857 421.113 631.724 424.266 623.287 423.368C613.713 422.35 611.7 416.274 616.338 410.428C617.365 409.134 618.546 407.586 620.413 406.904C621.696 406.436 623.331 406.85 624.364 406.472C627.988 405.149 625.809 403.039 631.086 403.391M628.012 398.897C619.774 399.687 604.553 406.844 605.324 414.004C605.992 414.834 606.998 415.174 608.34 415.023C608.017 416.574 608.122 418.109 608.656 419.627C609.438 421.598 610.999 423.213 613.091 424.497C617.399 427.14 623.288 427.788 628.652 427.325C638.669 426.46 646.563 421.321 647.126 413.499C647.675 405.864 638.798 397.874 628.012 398.897" fill="#89C5CC"/>
<path fill-rule="evenodd" clip-rule="evenodd" d="M667.912 408.214C664.216 409.685 658.368 411.944 656.201 414.737C653.911 417.687 656.282 420.915 661.107 419.519C664.937 418.412 667.373 414.891 671.458 413.763C675.064 412.768 676.517 413.275 680.327 414.266C684.254 415.288 687.686 416.275 691.93 416.024C697.265 415.709 701.885 413.387 707.107 412.859C711.503 412.414 715.129 413.698 719.34 414.209C724.225 414.802 727.419 413.414 731.989 412.691C735.098 412.199 740.578 414.2 742.845 413.451C747.944 411.768 742.55 409.711 739.728 409.031C734.973 407.886 732.047 408.896 727.524 409.846C722.614 410.877 720.493 410.102 715.8 409.155C706.304 407.239 698.968 411.871 689.967 411.029C681.633 410.249 676.647 404.742 667.912 408.214" fill="#89C5CC"/>
<path fill-rule="evenodd" clip-rule="evenodd" d="M823.186 404.792C832.326 411.225 822.058 420.379 811.98 415.237C808.433 413.427 808.376 410.52 811.137 407.92C813.661 405.541 819.209 404.614 823.186 404.792V404.792ZM819.798 399.593C811.258 400.84 803.203 403.782 802.43 411.181C801.676 418.4 811.539 421.753 819.825 421.28C838.428 420.216 837.083 397.084 819.798 399.593V399.593Z" fill="#89C5CC"/>
</g>
<path opacity="0.5" fill-rule="evenodd" clip-rule="evenodd" d="M1022.08 159.818C1015.24 159.918 998.377 161.783 995.87 167.849C993.966 172.454 999.62 171.443 1002.65 169.767C1006.75 167.502 1010.35 166.145 1015.43 165.456C1034.78 162.828 1053.37 172.252 1072.53 173.443C1079.79 173.895 1088.56 174.189 1095.49 172.424C1100.42 171.167 1101.07 168.426 1095.43 168.009C1090.65 167.654 1085.35 168.772 1080.44 168.74C1060.14 168.61 1042.09 159.532 1022.08 159.818" fill="#C1DEE2"/>
<g opacity="0.5">
<path fill-rule="evenodd" clip-rule="evenodd" d="M304.373 447.915C291.304 448.026 278.242 448.388 265.199 449.007C252.795 449.597 239.337 449.15 227.136 450.955C223.671 451.467 218.991 453.838 223.598 456.445C226.836 458.278 238.683 456.17 242.549 455.991C256.789 455.334 271.036 454.547 285.297 454.169C298.796 453.811 312.295 453.684 325.802 453.583C327.864 453.568 331.287 453.072 333.34 453.521C336.291 454.167 335.591 454.343 335.812 457.155C336.212 462.249 336.101 467.362 335.967 472.461C335.837 477.396 335.594 482.33 335.617 487.267C335.634 490.789 334.134 497.788 336.488 500.846C339.877 505.249 343.392 500.467 343.645 497.541C344.13 491.946 343.913 486.281 343.915 480.678C343.916 475.419 343.967 470.16 343.72 464.903C343.541 461.106 344.264 454.477 341.539 451.025C338.764 447.51 332.083 448.268 327.208 448.1C319.603 447.838 311.985 447.856 304.373 447.915" fill="#89C5CC"/>
<path fill-rule="evenodd" clip-rule="evenodd" d="M221.222 454.262C221.236 464.143 219.714 473.959 219.287 483.829C219.091 488.367 218.694 493.35 220.224 497.805C221.767 502.303 226.67 503.278 227.234 498.256C228.378 488.088 228.097 477.544 228.988 467.294C229.302 463.675 231.348 457.042 229.438 453.654C227.756 450.669 221.215 450.096 221.222 454.262" fill="#89C5CC"/>
<path fill-rule="evenodd" clip-rule="evenodd" d="M343.773 497.818C321.077 500.074 297.35 499.252 274.492 499.606C263.525 499.776 252.561 499.787 241.593 499.873C237.765 499.903 228.044 498.81 224.733 500.425C219.461 502.997 225.181 504.982 228.67 505.038C250.315 505.394 272.201 504.647 293.841 504.114C303.564 503.875 313.319 503.757 323.016 503.137C328.986 502.755 335.509 502.385 341.307 501.181C342.541 500.923 345.231 500.977 345.508 499.712C345.678 498.93 345.369 497.653 343.773 497.818" fill="#89C5CC"/>
<path fill-rule="evenodd" clip-rule="evenodd" d="M249.395 512.182C243.087 512.21 224.079 510.01 221.467 514.628C217.984 520.787 231.57 519.349 235.224 519.279C243.523 519.119 251.816 519.102 260.117 519.105C268.262 519.107 276.406 519.068 284.549 518.922C286.908 518.88 292.4 519.615 293.757 517.482C294.789 515.861 293.974 514.582 292.071 513.724C287.494 511.659 275.602 512.856 270.243 512.671C263.304 512.431 256.343 512.182 249.395 512.182" fill="#89C5CC"/>
<path fill-rule="evenodd" clip-rule="evenodd" d="M326.135 513.322C322.53 513.483 315.239 512.368 312.009 513.606C308.339 515.014 309.632 517.219 312.801 518.187C314.995 518.858 323.998 518.506 326.135 517.729C328.364 516.919 330.883 513.103 326.135 513.322" fill="#89C5CC"/>
<path fill-rule="evenodd" clip-rule="evenodd" d="M365.658 455.231C361.807 456.024 362.976 472.435 362.876 475.036C362.604 482.164 361.537 491.129 364.692 497.993C366.703 502.369 370.567 501.776 369.909 497.169C369.331 493.125 368.339 489.128 367.91 485.058C366.939 475.848 365.617 466.025 366.534 456.808C366.925 457.344 370.577 462.311 371.437 461.941C371.177 462.056 367.224 454.921 365.658 455.231" fill="#89C5CC"/>
<path fill-rule="evenodd" clip-rule="evenodd" d="M408.967 449.187C401.175 449.274 393.384 449.377 385.594 449.539C379.4 449.669 369.668 448.905 363.988 450.861C357.225 453.19 360.434 458.379 366.786 458.488C372.406 458.586 378.398 457.634 384.069 457.488C399.386 457.094 414.73 457.011 430.054 456.912C443.912 456.823 458.36 457.932 472.097 456.37C474.135 469.953 468.624 483.594 470.498 497.334C470.789 499.467 470.659 502.48 474.276 502.966C478.841 503.579 479.029 500.184 479.202 497.754C479.696 490.813 479.429 483.867 480.105 476.917C480.733 470.476 481.968 463.894 480.924 457.443C479.641 449.505 474.574 450.142 465.618 449.812C446.702 449.115 427.904 448.979 408.967 449.187" fill="#89C5CC"/>
<path fill-rule="evenodd" clip-rule="evenodd" d="M382.854 497.421C378.884 497.496 372.29 496.578 369.746 499.436C367.099 502.41 370.239 505.004 374.088 505.614C378.644 506.336 384.584 505.346 389.312 505.335C394.237 505.325 399.162 505.366 404.086 505.38C425.197 505.442 446.399 505.682 467.495 505.027C470.441 504.935 478.802 505.677 480.841 503.556C482.651 501.674 481.385 499.986 479.002 499.027C475.092 497.455 467.062 498.053 462.713 497.928C457.342 497.774 451.965 497.724 446.591 497.661C425.382 497.416 404.062 497.027 382.854 497.421" fill="#89C5CC"/>
<path fill-rule="evenodd" clip-rule="evenodd" d="M400.712 511.169C392.812 511.27 384.383 511.01 376.561 511.909C369.684 512.7 368.837 517.692 376.24 518.276C383.044 518.813 391.292 517.809 398.129 517.48C400.557 517.363 403.381 517.529 404.545 515.514C405.76 513.408 403.437 511.389 400.712 511.169" fill="#89C5CC"/>
<path fill-rule="evenodd" clip-rule="evenodd" d="M460.438 511.693C456.221 511.772 443.905 510.411 441.816 514.027C438.339 520.047 455.013 517.759 458.212 517.671C462.243 517.56 477.955 519.327 477.959 514.508C477.962 509.784 464.299 511.621 460.438 511.693" fill="#89C5CC"/>
<path fill-rule="evenodd" clip-rule="evenodd" d="M220.54 541.607C220.55 552.558 219.642 563.612 220.973 574.535C221.523 579.053 221.429 587.708 224.915 591.538C227.389 594.257 230.82 594.066 232.172 590.802C233.075 588.619 231.63 584.255 231.469 581.92C231.314 579.68 231.133 577.44 230.994 575.199C230.64 569.425 230.668 563.66 230.774 557.883C230.864 552.928 232.453 546.372 230.955 541.607C229.558 537.166 220.54 536.127 220.54 541.607" fill="#69A1AC"/>
<path fill-rule="evenodd" clip-rule="evenodd" d="M367.138 531.973C341.83 532.449 316.466 532.023 291.182 532.964C278.712 533.428 266.291 534.446 253.884 535.461C247.788 535.961 241.696 536.475 235.611 537.038C233.775 537.208 218.516 537.652 224.255 542.008C226.761 543.911 234.736 541.923 237.891 541.643C244 541.102 250.122 540.629 256.24 540.144C267.882 539.219 279.538 538.343 291.23 537.858C318.765 536.712 346.414 537.056 373.977 536.292C381.433 536.086 388.866 535.938 396.325 536.158C398.284 536.216 412.676 536.765 406.427 532.775C403.472 530.887 392.332 531.861 388.639 531.804C381.472 531.693 374.301 531.838 367.138 531.973" fill="#69A1AC"/>
<path fill-rule="evenodd" clip-rule="evenodd" d="M401.637 550.423C401.512 545.363 401.387 540.303 401.08 535.248C400.757 529.924 410.417 529.118 413.282 533.427C415.344 536.53 414.981 541.809 414.671 546.333C414.545 548.157 414.428 549.857 414.482 551.244C414.605 554.422 414.917 557.708 415.232 561.037C416.026 569.416 416.846 578.071 414.76 585.98C413.746 589.824 409.427 591.844 406.553 589.749C406.549 589.753 406.545 589.758 406.541 589.762C405.46 590.958 402.094 590.956 399.616 590.954C398.933 590.953 398.318 590.952 397.836 590.977C391.045 591.323 384.381 591.908 377.65 592.666C364.241 594.175 350.947 595.102 337.392 595.354C328.195 595.525 318.984 595.582 309.772 595.64C292.13 595.75 274.48 595.86 256.895 596.765C250.966 597.071 245.127 597.595 239.295 598.433C238.799 598.505 238.247 598.597 237.661 598.695C233.324 599.419 227.047 600.467 226.618 595.917C226.108 590.517 241.696 589.81 249.718 589.446C250.943 589.391 251.991 589.343 252.779 589.288C277.136 587.587 301.875 587.85 326.336 588.111C327.521 588.124 328.706 588.136 329.889 588.149C331.798 588.168 333.707 588.192 335.615 588.216C346.088 588.345 356.548 588.474 367.018 587.994C371.782 587.775 376.609 587.662 381.444 587.55C389.159 587.37 396.896 587.19 404.441 586.576C403.303 583.264 403.104 579.355 402.917 575.671C402.844 574.236 402.773 572.836 402.648 571.518C401.985 564.496 401.811 557.46 401.637 550.423Z" fill="#69A1AC"/>
<path fill-rule="evenodd" clip-rule="evenodd" d="M422.119 539.148C418.7 539.497 415.849 541.694 417.375 544.48C419.297 547.988 425.023 546.618 428.806 546.396C440.829 545.688 453.382 547.101 465.26 546.035C468.504 545.744 473.21 544.418 470.298 541.145C468.109 538.686 460.132 539.117 456.741 538.882C445.145 538.076 433.701 538.291 422.119 539.148" fill="#C1DEE2"/>
<path fill-rule="evenodd" clip-rule="evenodd" d="M442.412 554.454C437.749 554.689 426.894 554.504 424.929 558.487C421.405 565.633 435.21 563.115 439.414 562.708C444.297 562.236 455.808 563.501 458.408 559.945C463.057 553.588 446.501 554.242 442.412 554.454" fill="#C1DEE2"/>
<path fill-rule="evenodd" clip-rule="evenodd" d="M430.421 570.135C428.209 571.797 428.206 574.763 430.421 576.425C433.133 578.459 439.043 578.037 442.607 578.185C447.577 578.394 461.854 580.367 464.322 575.973C467.653 570.044 454.725 570.168 450.472 569.832C445.558 569.443 434.494 567.075 430.421 570.135" fill="#C1DEE2"/>
<path fill-rule="evenodd" clip-rule="evenodd" d="M256.17 468.644C256.17 475.018 269.431 475.018 269.431 468.644C269.431 462.304 256.17 462.207 256.17 468.644" fill="#89C5CC"/>
<path fill-rule="evenodd" clip-rule="evenodd" d="M281.324 468.716C281.324 476.004 296.428 475.989 296.428 468.716C296.428 461.454 281.324 461.38 281.324 468.716" fill="#89C5CC"/>
<path fill-rule="evenodd" clip-rule="evenodd" d="M266.107 478.406C258.765 479.928 265.529 484.599 268.938 485.666C274.356 487.363 281.751 488.613 287.17 486.07C289.327 485.058 291.077 483.713 289.497 481.749C287.813 479.658 285.508 480.588 282.945 480.781C279.697 481.026 277.073 480.988 273.937 480.206C271.596 479.623 268.66 477.878 266.107 478.406" fill="#89C5CC"/>
<path fill-rule="evenodd" clip-rule="evenodd" d="M399.287 469.047C399.287 473.359 408.204 473.359 408.204 469.047C408.204 464.736 399.287 464.736 399.287 469.047" fill="#89C5CC"/>
<path fill-rule="evenodd" clip-rule="evenodd" d="M419.008 469.696C419.008 474.487 428.914 474.487 428.914 469.696C428.914 464.905 419.008 464.906 419.008 469.696" fill="#89C5CC"/>
<path fill-rule="evenodd" clip-rule="evenodd" d="M418.274 480.092C413.07 480.596 398.02 481.741 397.177 486.557C395.878 493.987 412.37 487.974 416.133 487.39C420.927 486.647 425.208 486.841 429.994 486.985C432.622 487.064 436.117 487.384 435.841 484.379C435.389 479.444 422.823 479.655 418.274 480.092" fill="#89C5CC"/>
<path fill-rule="evenodd" clip-rule="evenodd" d="M287.437 548.607C283.665 549.363 278.731 554.258 281.326 557.254C285.581 562.169 287.458 554.624 289.238 553.898C292.479 552.576 295.109 557.405 298.495 554.872C303.839 550.875 290.801 547.931 287.437 548.607" fill="#69A1AC"/>
<path fill-rule="evenodd" clip-rule="evenodd" d="M330.655 544.975C326.182 545.006 316.739 549.761 316.07 553.271C315.673 555.357 317.515 557.361 320.51 557.389C324.588 557.426 325.884 553.445 329.42 552.613C333.233 551.715 332.667 553.783 335.961 554.855C338.371 555.64 341.385 555.311 342.222 553.086C343.802 548.89 335.251 544.909 330.655 544.975" fill="#69A1AC"/>
<path fill-rule="evenodd" clip-rule="evenodd" d="M296.416 565.076C289.261 568.223 301.034 574.97 305.115 575.814C311.276 577.087 323.676 574.711 325.136 569.06C325.717 566.812 323.843 564.775 320.538 565.177C317.816 565.509 316.07 568.072 313.549 568.99C310.147 570.229 307.121 570.145 304.23 568.28C301.874 566.76 300.613 563.238 296.416 565.076" fill="#69A1AC"/>
<path fill-rule="evenodd" clip-rule="evenodd" d="M301.601 611.584C295.209 612.608 288.712 611.921 282.289 612.883C275.739 613.865 271.825 615.722 265.74 613.851C265.454 613.76 265.168 613.669 264.882 613.578C260.173 612.056 255.236 611.605 250.307 614.032C247.389 615.468 238.533 620.436 239.6 623.468C241.914 630.04 251.879 619.735 254.42 618.73C259.266 616.815 262.588 619.262 267.577 619.952C273.552 620.78 278.361 618.409 283.99 617.465C290.573 616.36 297.979 615.976 304.677 615.385C307.323 615.151 317.346 616.722 318.251 614.25C319.805 610.003 304.114 611.184 301.601 611.584" fill="#C1DEE2"/>
<path fill-rule="evenodd" clip-rule="evenodd" d="M347.719 624.82C348.137 625.058 347.801 624.867 347.719 624.82ZM365.621 611.327C371.093 610.91 388.601 607.976 392.196 612.221C394.537 614.986 390.822 625.192 387.277 626.512C384.444 627.566 377.845 626.4 374.736 626.318C368.952 626.165 363.155 626.097 357.378 625.826C355.44 625.735 349.205 626.003 347.686 624.715C345.892 623.195 345.972 615.09 345.549 613.08C350.581 614.302 360.36 611.728 365.621 611.327M377.306 607.165C370.298 607.393 363.291 607.789 356.335 608.494C352.457 608.888 348.529 609.934 344.947 610.429C343.793 610.589 341.919 610.146 340.504 610.659C336.367 612.159 339.99 622.303 340.987 625.013C342.519 629.176 346.375 629.851 351.777 630.243C358.894 630.76 366.156 630.598 373.295 630.532C380.176 630.469 389.454 631.614 393.315 626.43C395.811 623.079 398.488 615.273 396.355 611.538C393.548 606.624 383.07 606.984 377.306 607.165" fill="#C1DEE2"/>
<path fill-rule="evenodd" clip-rule="evenodd" d="M455.788 627.608C455.414 627.97 455.414 627.97 455.788 627.608ZM457.324 626.219C457.208 626.351 456.67 626.777 457.324 626.219ZM440.61 625.837C443.7 625.4 446.79 624.969 449.883 624.545C446.954 627.623 443.87 626.351 438.867 626.083C439.448 626.001 440.029 625.919 440.61 625.837M425.871 624.748C426.655 624.551 427.437 624.354 428.22 624.158C428.197 624.605 428.325 625.024 428.605 625.414C427.264 625.306 425.925 625.189 424.587 625.065C425.015 624.959 425.443 624.854 425.871 624.748M419.041 620.961C418.997 620.153 420.615 620.708 421.542 620.654C419.755 621.835 418.921 621.938 419.041 620.961M443.468 611.801C443.703 611.576 444.015 611.587 444.402 611.835C443.979 611.942 442.35 612.461 443.468 611.801M459.309 610.403C459.351 610.403 460.23 611.294 459.309 610.403ZM458.865 610.111C459.095 610.243 459.095 610.243 458.865 610.111ZM456.887 609.937C460.126 610.347 459.88 613.201 456.887 609.937ZM418.835 609.743C418.177 610.153 418.402 609.755 418.835 609.743ZM431.221 603.667C425.722 603.908 415.629 603.666 411.037 605.865C405.044 608.736 408.197 618.619 408.734 622.952C409.526 629.356 413.54 631.18 421.573 631.852C431.16 632.654 441.01 632.804 450.647 632.614C459.326 632.442 464.268 630.201 465.858 623.341C466.345 621.242 467.581 617.995 467.542 615.984C467.515 614.59 466.589 613.954 466.239 612.768C464.246 606.016 460.913 605.216 451.696 604.921C444.912 604.705 437.878 603.406 431.221 603.667" fill="#89C5CC"/>
</g>
<g opacity="0.5">
<path fill-rule="evenodd" clip-rule="evenodd" d="M722.498 448.557C736.478 448.781 752.341 454.59 750.129 466.896C748.51 475.912 738.114 483.23 726.073 483.861C713.131 484.539 699.449 477.082 697.691 467.19C695.713 456.063 708.827 448.335 722.498 448.557M715.642 443.548C709.975 444.183 704.559 446.418 699.568 448.419C697.663 449.184 688.005 453.844 695.58 455.001C677.329 477.1 720.282 497.627 744.432 483.264C755.276 476.814 760.986 464.586 753.976 455.015C746.726 445.115 729.532 441.982 715.642 443.548" fill="#89C5CC"/>
<path fill-rule="evenodd" clip-rule="evenodd" d="M712.302 462.358C712.302 466.485 720.835 466.485 720.835 462.358C720.835 458.231 712.302 458.231 712.302 462.358" fill="#89C5CC"/>
<path fill-rule="evenodd" clip-rule="evenodd" d="M728.123 463.019C728.123 467.494 737.374 467.494 737.374 463.019C737.374 458.544 728.123 458.544 728.123 463.019" fill="#89C5CC"/>
<path fill-rule="evenodd" clip-rule="evenodd" d="M717.446 471.868C716.201 475.263 730.397 477.004 730.869 473.075C731.094 471.198 718.312 469.5 717.446 471.868" fill="#89C5CC"/>
<path fill-rule="evenodd" clip-rule="evenodd" d="M759.06 469.77C775.394 468.299 792.236 468.979 808.65 469.332C812.757 469.421 816.865 469.507 820.973 469.559C823.585 469.591 829.226 470.533 831.505 469.615C840.84 465.856 822.528 464.039 819.936 463.866C803.609 462.858 778.413 462.498 762.039 462.974C757.196 463.115 756.149 470.032 759.06 469.77" fill="#89C5CC"/>
<path fill-rule="evenodd" clip-rule="evenodd" d="M832.564 530.734C832.704 517.885 833.317 504.949 834.633 492.138C835.169 486.916 835.811 481.701 836.344 476.479C836.595 474.02 837.759 470.575 835.834 468.417C833.849 466.193 829.496 465.731 826.873 467.701C823.733 470.753 824.645 475.875 824.255 479.566C823.655 485.242 822.929 490.914 822.569 496.602C821.872 507.612 821.709 518.813 822.887 529.807C823.444 534.995 824.651 540.057 826.255 545.117C826.987 547.42 832.8 557.679 831.578 559.094C829.684 561.288 815.683 560.458 812.646 560.52C804.852 560.677 797.056 560.779 789.261 560.891C782.587 560.986 775.913 561.055 769.238 561.099C766.587 561.117 751.015 560.763 754.469 563.713C715.842 565.734 676.476 562.36 638.084 561.203C636.144 561.144 632.971 560.731 630.043 560.612C629.692 559.55 629.403 558.601 629.332 557.941C628.827 553.309 628.696 548.66 628.149 544.029C627.148 535.556 625.207 527.168 624.052 518.709C622.9 510.259 623.016 501.783 622.345 493.312C622.23 491.861 621.958 479.971 617.962 477.083C619.857 477.622 622.912 477.692 624.671 477.586C638.913 476.723 653.051 474.865 667.171 473.27C671.21 472.815 680.377 473.138 683.728 471.622C686.628 470.309 687.776 465.708 682.731 466.08C668.651 467.212 654.648 468.97 640.679 470.7C636.943 471.163 633.216 471.657 629.49 472.163C627.002 472.501 620.433 472.475 618.503 473.601C616.159 474.968 615.911 475.899 616.705 476.517C615.601 476.289 614.277 476.647 612.687 477.842C609.682 480.779 612.507 488.013 612.866 491.457C613.296 495.588 613.508 499.726 613.759 503.864C614.242 511.873 615.359 519.771 617.075 527.684C618.999 536.548 620.635 545.448 622.563 554.309C623.065 556.616 623.719 558.866 624.555 561.095C619.36 563.09 622.892 566.263 627.012 566.826C627.041 566.829 627.072 566.833 627.102 566.836C628.386 569.188 630.182 571.367 631.585 568.216C631.692 567.974 631.742 567.676 631.755 567.342C642.396 568.246 654.093 567.685 664.569 568.006C687.262 568.702 710.095 569.747 732.811 569.218C741.804 569.008 750.825 568.408 759.742 567.507C764.967 566.98 770.211 566.35 775.352 565.475C775.721 565.413 776.281 565.347 776.927 565.267C777.033 565.265 777.14 565.263 777.24 565.262C785.112 565.172 792.978 565.014 800.843 564.768C807.445 564.563 814.077 564.457 820.658 563.989C824.746 563.699 833.385 563.753 835.895 560.666C838.177 557.86 834.362 550.631 833.82 547.479C832.867 541.929 832.502 536.327 832.564 530.734" fill="#C1DEE2"/>
<path fill-rule="evenodd" clip-rule="evenodd" d="M752.786 493.632C746.496 494.037 740.68 496.255 734.331 496.282C729.003 496.305 723.757 495.109 718.4 495.286C712.115 495.492 708.657 498.543 703.153 499.564C698.77 500.377 696.009 497.858 692.154 496.744C687.287 495.336 683.692 496.063 679.52 498.191C676.455 499.755 669.306 503.264 669.361 506.427C669.525 516.007 684.414 502.773 687.415 502.613C691.403 502.4 695.858 505.812 700.101 506.007C705.711 506.265 709.307 503.549 714.473 502.56C719.697 501.56 725.344 502.785 730.58 503.166C736.555 503.6 741.784 502.6 747.565 501.529C753.167 500.491 757.94 500.546 763.632 501.418C767.474 502.006 777.045 505.426 778.725 501.029C781.014 495.041 757.184 493.351 752.786 493.632" fill="#89C5CC"/>
<path fill-rule="evenodd" clip-rule="evenodd" d="M754.701 511.905C741.813 512.844 728.845 513.668 715.898 513.931C710.29 514.046 688.732 512.242 690.644 517.591C692.282 522.179 721.619 519.291 727.594 518.941C734.191 518.556 740.777 518.018 747.341 517.395C749.667 517.174 755.285 517.402 756.927 515.938C758.491 514.54 757.72 511.678 754.701 511.905" fill="#89C5CC"/>
<path fill-rule="evenodd" clip-rule="evenodd" d="M665.786 536.269C665.493 536.362 665.493 536.362 665.786 536.269ZM668.505 536.242C671.718 536.165 671.029 534.893 674.235 535.556C675.713 535.862 675.865 535.408 677.011 536.469C679.247 538.539 677.141 543.046 674.937 544.713C666.775 550.889 656.98 536.516 668.505 536.242M668.505 530.183C646.161 530.746 655.51 556.66 674.957 551.37C682.988 549.185 688.037 539.343 683.313 533.813C681.015 531.122 678.085 530.644 674.235 530.457C673.341 530.414 672.216 531.389 671.659 531.345C670.333 531.24 670.456 530.128 668.505 530.183" fill="#89C5CC"/>
<path fill-rule="evenodd" clip-rule="evenodd" d="M721.938 537.157C721.539 537.065 728.993 538.692 728.178 538.055C729.918 539.414 727.578 542.627 725.609 543.188C720.842 544.547 718.166 538.981 721.938 537.157M725.245 530.13C718.249 530.875 712.85 533.062 711.894 538.903C711.011 544.294 715.863 549.754 723.517 549.859C740.199 550.088 740.707 528.511 725.245 530.13" fill="#89C5CC"/>
<path fill-rule="evenodd" clip-rule="evenodd" d="M801.401 537.393C802.378 546.967 789.155 538.204 801.401 537.393ZM795.726 527.15C794.57 528.635 795.556 530.209 797.301 531.072C781.704 533.547 785.236 551.169 801.108 548.565C809.179 547.241 810.664 540.869 809.461 535.608C808.888 533.106 800.584 520.915 795.726 527.15" fill="#89C5CC"/>
</g>
<path opacity="0.5" fill-rule="evenodd" clip-rule="evenodd" d="M832.627 536.345C827.977 536.966 816.986 540.821 817.082 544.962C817.23 551.425 826.572 544.365 828.65 543.416C839.813 538.315 854.272 544.925 865.895 546.331C871.225 546.975 881.65 548.167 886.357 545.485C894.728 540.717 875.368 541.911 872.903 541.719C859.501 540.68 846.168 534.529 832.627 536.345" fill="#C1DEE2"/>
<g opacity="0.5">
<path fill-rule="evenodd" clip-rule="evenodd" d="M1052.24 490.9C1052.24 497.514 1051.79 504.264 1053.42 510.799C1053.91 512.777 1054.3 516.566 1057.08 517.592C1059.87 518.623 1062.58 517.465 1063.27 515.316C1064.08 512.816 1062.3 509.075 1062.12 506.45C1061.88 502.864 1061.86 499.274 1061.86 495.685C1061.86 493.092 1062.99 488.922 1058.92 487.588C1055.89 486.596 1052.24 488.44 1052.24 490.9" fill="#C1DEE2"/>
<path fill-rule="evenodd" clip-rule="evenodd" d="M1191.51 480.44C1162.32 482.64 1132.71 483.097 1103.42 484.244C1089.88 484.774 1073.52 484.098 1060.77 488.032C1058.4 488.763 1049.91 492.83 1056.8 494.486C1058.95 495.003 1061.13 493.266 1062.89 492.684C1065.83 491.717 1069.23 491.417 1072.36 491.039C1098.97 487.83 1126.81 488.389 1153.7 486.89C1160.59 486.505 1167.48 486.11 1174.36 485.602C1179.27 485.239 1189.6 482.581 1194.13 483.941C1201.87 486.264 1201.69 501.358 1201.85 506.549C1201.93 509.234 1198.46 518.871 1205.35 517.894C1210.88 517.112 1208.88 507.1 1208.45 504.362C1207.32 497.183 1205.39 479.384 1191.51 480.44" fill="#C1DEE2"/>
<path fill-rule="evenodd" clip-rule="evenodd" d="M1202.27 517.546C1176.92 519.264 1150.98 517.578 1125.53 518.254C1112.18 518.609 1098.86 519.173 1085.51 519.504C1079.74 519.648 1073.96 519.654 1068.19 519.684C1065.43 519.698 1052.86 520.955 1060.63 525.066C1064.08 526.886 1075.05 525.42 1079 525.385C1084.93 525.332 1090.86 525.147 1096.79 524.973C1110.52 524.57 1124.25 524.011 1137.99 523.732C1151.13 523.465 1164.28 523.408 1177.42 523.14C1183.96 523.007 1190.59 522.856 1197.07 522.14C1198.54 521.978 1203.29 521.849 1204.3 520.625C1205.26 519.467 1204.59 517.378 1202.27 517.546" fill="#89C5CC"/>
<path fill-rule="evenodd" clip-rule="evenodd" d="M1077.68 503.257C1077.54 503.499 1077.54 503.499 1077.68 503.257ZM1088.65 500.752C1089.05 500.879 1089.05 500.879 1088.65 500.752ZM1088.14 500.682C1094.06 505.209 1084.96 510.613 1079.42 506.195C1073.53 501.506 1084.33 500.697 1088.14 500.682M1081.86 493.833C1061.49 496.555 1068.7 516.945 1087.73 513.998C1096.09 512.705 1100.87 506.385 1097.99 500.314C1096.87 497.943 1094.42 495.34 1091.01 494.592C1089.31 494.22 1087.8 494.806 1086.18 494.669C1084.64 494.538 1083.78 493.573 1081.86 493.833" fill="#C1DEE2"/>
<path fill-rule="evenodd" clip-rule="evenodd" d="M1159.85 499.572C1147.56 499.601 1135.27 499.993 1122.99 500.168C1119.22 500.221 1109.53 498.955 1109.52 503.415C1109.5 508.181 1120.29 506.421 1123.88 506.357C1136.07 506.138 1148.29 505.737 1160.43 504.866C1163.49 504.646 1174.11 505.026 1174.1 501.895C1174.08 498.579 1162.33 499.572 1159.85 499.572" fill="#C1DEE2"/>
<path fill-rule="evenodd" clip-rule="evenodd" d="M1189.2 530.679C1158.81 531.291 1128.47 531.504 1098.1 532.672C1086.74 533.109 1075.4 533.434 1064.02 533.434C1061.83 533.434 1057.42 532.797 1055.36 533.833C1049.76 536.642 1056.13 539.054 1059.78 539.205C1084.73 540.245 1110.03 537.658 1134.97 537.074C1149.56 536.732 1164.16 536.631 1178.75 536.074C1182.73 535.922 1186.71 535.745 1190.68 535.514C1192.97 535.381 1199.01 535.745 1200.86 534.742C1208.92 530.36 1191.92 530.624 1189.2 530.679" fill="#89C5CC"/>
<path fill-rule="evenodd" clip-rule="evenodd" d="M1049.76 541.835C1049.48 547.751 1049.45 553.564 1050.48 559.447C1050.88 561.762 1051.07 564.389 1054.68 564.977C1057.97 565.511 1059.63 563.647 1060.31 561.58C1061.97 556.534 1060.51 549.27 1060.49 544.028C1060.48 541.436 1060.48 538.535 1056.21 537.949C1052.96 537.501 1049.89 539.267 1049.76 541.835" fill="#89C5CC"/>
<path fill-rule="evenodd" clip-rule="evenodd" d="M1221.42 556.097C1172.22 558.043 1123.09 559.742 1073.86 561.305C1070.02 561.427 1040.19 561.183 1050.62 568.992C1053.84 571.403 1062.14 569.77 1066.3 569.617C1072.56 569.386 1078.82 569.209 1085.08 568.97C1109.9 568.022 1134.78 567.766 1159.58 566.702C1173.22 566.116 1186.84 565.2 1200.42 564.006C1206.87 563.439 1214.89 563.498 1220.94 561.598C1224.05 560.62 1227.4 555.858 1221.42 556.097" fill="#89C5CC"/>
<path fill-rule="evenodd" clip-rule="evenodd" d="M1193.13 526.088C1189.39 528.886 1191.31 534.404 1191.59 537.862C1191.98 542.62 1192.45 547.381 1193.24 552.113C1193.76 555.187 1193.49 559.972 1195.67 562.626C1198.23 565.736 1203.86 565.392 1206.17 562.388C1208.22 559.731 1207.18 554.141 1207.13 551.197C1207.06 547.126 1206.72 543.048 1206.4 538.985C1206.13 535.589 1207.15 530.146 1204.66 527.24C1202.14 524.286 1196.63 523.47 1193.13 526.088" fill="#89C5CC"/>
<path fill-rule="evenodd" clip-rule="evenodd" d="M1080.68 547.797C1080.24 548.051 1080.24 548.051 1080.68 547.797ZM1089.42 546.975C1097.57 548.206 1084.39 555.353 1080.22 550.448C1079.57 549.682 1079.23 548.74 1080.28 548.074C1081.23 547.465 1081.83 548.542 1082.73 548.253C1084.28 547.754 1087.76 546.929 1089.42 546.975M1088.3 541.108C1082.73 541.439 1075.08 541.697 1072.32 545.886C1068.62 551.513 1074.95 557.024 1082.27 557.88C1089.32 558.704 1099.84 555.773 1100.41 549.602C1100.86 544.627 1094.56 540.726 1088.3 541.108" fill="#89C5CC"/>
<path fill-rule="evenodd" clip-rule="evenodd" d="M1134.77 544.084C1129.01 544.153 1117.68 542.874 1112.66 544.983C1107.69 547.069 1109.91 550.785 1114.44 551.674C1117.43 552.261 1122.33 551.313 1125.45 551.218C1129.55 551.093 1133.66 551.066 1137.76 551.023C1144.67 550.953 1151.57 551.012 1158.47 551.012C1165.52 551.012 1172.7 551.157 1179.73 550.768C1188.64 550.275 1188.4 545.268 1179.69 544.642C1164.89 543.579 1149.61 543.908 1134.77 544.084" fill="#89C5CC"/>
<path fill-rule="evenodd" clip-rule="evenodd" d="M1120.05 600.163C1120.05 602.543 1122.86 600.163 1122.84 600.163C1122.86 600.163 1120.05 597.784 1120.05 600.163" fill="#89C5CC"/>
<path fill-rule="evenodd" clip-rule="evenodd" d="M1056.45 581.013C1056.63 587.928 1056.75 594.849 1057.14 601.759C1057.27 603.944 1056.43 608.211 1059.96 609.325C1063.89 610.564 1065.11 607.474 1065.56 605.38C1066.99 598.745 1065.59 591.17 1065.45 584.457C1065.41 582.203 1066.06 579.065 1062.65 577.941C1059.86 577.024 1056.39 578.726 1056.45 581.013" fill="#89C5CC"/>
<path fill-rule="evenodd" clip-rule="evenodd" d="M1207.92 581.121C1208.15 581.533 1208.15 581.533 1207.92 581.121ZM1208.25 581.05C1208.44 581.11 1209.2 581.35 1208.25 581.05ZM1133.84 575.461C1119.7 575.628 1105.55 575.754 1091.42 576.208C1085.39 576.403 1079.29 576.559 1073.28 576.986C1069.02 577.288 1058.45 577.414 1055.69 580.026C1049.99 585.417 1062.07 583.947 1064.67 583.509C1069.41 582.712 1074.24 582.456 1079.08 582.265C1089.58 581.849 1100.08 581.627 1110.6 581.468C1139.1 581.038 1167.63 581.103 1196.14 581.006C1198.9 580.997 1203.89 580.164 1206.44 581.002C1208.99 581.842 1208.85 583.908 1209.11 586.306C1209.46 589.497 1206.66 595.579 1208.8 598.263C1212.11 602.426 1216.93 598.891 1217.67 595.856C1218.68 591.661 1217.07 586.625 1215.49 582.616C1213.26 576.959 1210.17 576.734 1202.88 576.292C1194.37 575.776 1185.88 575.463 1177.34 575.403C1162.85 575.303 1148.34 575.292 1133.84 575.461" fill="#89C5CC"/>
<path fill-rule="evenodd" clip-rule="evenodd" d="M1189.77 604.047C1159.1 606.721 1127.56 605.145 1096.72 605.24C1089.23 605.263 1081.72 605.308 1074.23 605.581C1070.27 605.724 1060.9 604.906 1058.19 607.197C1052.47 612.028 1062.76 612.73 1066.52 612.53C1074.12 612.125 1081.73 611.94 1089.35 611.895C1116.18 611.74 1143.15 612.68 1169.96 611.686C1181.19 611.27 1192.17 609.828 1203.19 608.216C1205.63 607.859 1222.35 605.473 1212.82 602.613C1207.18 600.923 1195.69 603.528 1189.77 604.047" fill="#89C5CC"/>
<path fill-rule="evenodd" clip-rule="evenodd" d="M1100.22 595.204C1100.01 595.411 1100.01 595.411 1100.22 595.204ZM1100.02 595.169C1099.94 595.317 1099.72 595.682 1100.02 595.169ZM1098.08 593.295C1098.13 593.339 1098.31 593.514 1098.08 593.295ZM1098.01 593.281C1098.75 593.943 1099.24 594.681 1099.5 595.496C1093.14 596.788 1090.7 592.929 1098.01 593.281M1097.6 593.101C1097.61 593.102 1098.5 593.384 1097.6 593.101ZM1087.17 587.351C1083.05 591.196 1079.66 595.677 1084.79 600.069C1089.37 603.995 1098.59 604.502 1104.41 601.881C1110.41 599.179 1109.89 593.492 1105.71 589.781C1103.02 587.391 1100.83 587.457 1096.93 587.067C1094.27 586.801 1089.42 585.249 1087.17 587.351" fill="#89C5CC"/>
<path fill-rule="evenodd" clip-rule="evenodd" d="M1129.68 594.467C1129.68 599.587 1159.13 597.383 1164.36 597.378C1168.75 597.373 1195.29 599.19 1193.38 593.921C1191.82 589.592 1165.68 591.744 1160.11 591.738C1155.3 591.733 1129.68 589.253 1129.68 594.467" fill="#89C5CC"/>
</g>
<g opacity="0.5">
<path fill-rule="evenodd" clip-rule="evenodd" d="M745.253 642.438C760 644.045 775.341 649.252 775.212 662.14C775.104 672.975 762.999 684.507 747.456 683.86C733.467 683.278 720.296 671.794 718.545 661.952C717.637 656.853 719.335 651.363 723.33 647.168C728.565 641.672 736.871 641.681 745.253 642.438M738.287 635.433C727.621 635.477 719.817 638.374 713.216 644.488C710.849 646.68 708.095 649.04 706.293 651.524C704.61 653.844 704.905 659.743 710.681 656.977C709.259 668.398 718.149 679.483 730.93 685.335C744.823 691.696 760.525 690.456 772.087 681.54C782.671 673.377 786.396 659.591 778.653 649.497C770.914 639.407 752.984 635.325 738.287 635.433" fill="#89C5CC"/>
<path fill-rule="evenodd" clip-rule="evenodd" d="M770.271 632.372C763.442 636.13 757.207 641.077 752.028 646.096C746.966 651.001 743.62 657.126 737.539 661.404C734.468 658.892 730.87 652.11 724.745 654.801C719.661 657.034 722.934 660.874 725.41 663.395C731.803 669.904 738.902 672.524 747.101 666.092C754.548 660.251 758.776 652.459 765.739 646.282C768.793 643.572 773.511 640.881 775.943 637.889C778.147 635.177 775.421 629.53 770.271 632.372" fill="#89C5CC"/>
</g>
<g opacity="0.5">
<path fill-rule="evenodd" clip-rule="evenodd" d="M1028.34 224.893C1028.35 225.405 1028.36 225.887 1028.37 226.33C1028.69 236.002 1028.5 246.17 1027.46 255.82C1027.1 259.152 1023.87 263.374 1020.19 258.782C1018.57 256.762 1018.79 252.615 1018.96 249.565C1019.01 248.747 1019.05 248.008 1019.04 247.41C1019.04 244.006 1019.28 240.567 1019.52 237.12C1019.99 230.379 1020.45 223.603 1019.13 216.983C1019.1 216.849 1019.07 216.72 1019.05 216.596C1018.47 213.685 1018.43 213.484 1014.17 213.55C1012.39 213.578 1010.61 213.614 1008.84 213.65C1007.09 213.685 1005.34 213.721 1003.59 213.748C1001.85 213.776 1000.12 213.801 998.381 213.826C992.936 213.904 987.49 213.983 982.048 214.133C981.139 214.158 979.444 214.317 977.305 214.519C973.03 214.922 966.979 215.491 961.887 215.488C961.888 215.504 961.89 215.521 961.892 215.537C961.894 215.567 961.897 215.597 961.898 215.627C961.956 217.737 961.232 220.093 960.504 222.46C959.895 224.442 959.284 226.431 959.127 228.291C958.753 232.716 958.749 237.187 958.745 241.659C958.74 247.104 958.735 252.549 958.063 257.909C958.031 258.171 958.011 258.447 957.991 258.727C957.988 258.764 957.986 258.801 957.983 258.838C958.213 258.812 958.437 258.793 958.653 258.783C962.323 258.608 966.023 258.593 969.718 258.577C971.756 258.569 973.792 258.56 975.821 258.525C979.463 258.461 983.149 258.464 986.851 258.467C995.022 258.474 1003.27 258.481 1011.26 257.774C1013.62 257.544 1014.44 259.817 1013.39 260.996C1012.44 262.051 1009.83 262.222 1007.92 262.347C1007.43 262.379 1006.99 262.408 1006.63 262.447C1001.48 263.02 996.254 263.22 991.053 263.393C985.59 263.575 980.122 263.711 974.656 263.825C973.355 263.852 971.619 263.984 969.693 264.13C964.611 264.516 958.211 265.001 955.034 263.922C951.621 262.763 951.7 261.475 953.094 260.478C952.482 259.469 952.386 257.995 952.311 256.842C952.283 256.402 952.257 256.009 952.207 255.706C951.449 251.116 950.993 246.584 950.982 241.954C950.96 232.885 950.985 223.466 954.326 214.688C952.988 214.248 952.18 213.6 952.184 212.665C952.199 207.955 971.724 208.195 981.004 208.309C982.664 208.329 983.996 208.345 984.83 208.329C991.591 208.196 998.353 208.179 1005.12 208.206C1006.54 208.212 1008.13 208.142 1009.78 208.069C1013.29 207.914 1017.05 207.748 1020.08 208.276C1028.03 209.662 1028.22 219.171 1028.34 224.893Z" fill="#89C5CC"/>
<path fill-rule="evenodd" clip-rule="evenodd" d="M1078.07 209.309C1085.46 209.015 1092.84 208.948 1100.23 208.928C1108.06 208.898 1115.9 209.004 1123.72 209.184L1123.9 209.188C1127.37 209.266 1146.64 209.701 1137.79 213.306C1137.27 213.516 1136.69 213.692 1136.05 213.838C1136.43 215.507 1136.47 217.23 1136.41 218.06C1136.19 221.209 1136.04 224.361 1135.88 227.512C1135.78 229.648 1135.68 231.784 1135.55 233.919C1135.21 239.818 1134.87 245.717 1134.6 251.618C1134.57 252.343 1134.62 253.29 1134.68 254.346V254.346C1134.87 257.837 1135.12 262.515 1132.59 264.245C1130.38 265.763 1128.86 265.459 1127.84 264.428C1121.5 265.81 1108.48 265.361 1101.93 265.135C1100.35 265.08 1099.15 265.039 1098.5 265.039C1097.36 265.039 1095.22 265.147 1092.53 265.283C1081.31 265.848 1060.38 266.904 1060.34 262.753C1060.33 262.354 1060.5 261.996 1060.83 261.675C1059.94 260.995 1059.14 259.995 1058.63 258.748C1056.78 254.271 1056.61 249.44 1056.47 244.798C1056.28 238.243 1056.28 231.68 1056.28 225.119C1056.28 221.749 1056.28 218.38 1056.25 215.012C1055.05 213.803 1055.76 212.421 1057.26 211.456C1060.44 209.404 1068.35 209.379 1074.07 209.361C1075.6 209.356 1076.98 209.352 1078.07 209.309ZM1066.06 259.854C1073.17 258.714 1085.17 259.081 1091.59 259.278C1093.27 259.329 1094.57 259.369 1095.3 259.367C1101.86 259.347 1108.43 259.416 1114.98 259.613C1115.66 259.633 1116.67 259.614 1117.85 259.592C1120.23 259.547 1123.34 259.488 1125.97 259.707C1125.94 259.439 1125.91 259.194 1125.9 258.982C1125.6 254.601 1125.82 250.182 1126.03 245.788C1126.07 244.854 1126.12 243.921 1126.16 242.989C1126.3 239.704 1126.49 236.421 1126.67 233.137L1126.67 233.136C1126.79 231.068 1126.91 229 1127.01 226.931C1127.06 226.024 1126.99 224.791 1126.91 223.405L1126.91 223.405C1126.75 220.583 1126.56 217.124 1127.23 214.467C1124.81 214.433 1122.32 214.304 1120.04 214.185C1117.84 214.071 1115.83 213.967 1114.25 213.967C1112.25 213.966 1110.25 213.962 1108.25 213.957H1108.25H1108.25C1102.71 213.944 1097.17 213.932 1091.62 214.014C1091.1 214.022 1090.57 214.03 1090.04 214.037C1082.41 214.148 1074.71 214.259 1067.14 215.014C1066.7 215.058 1066.17 215.144 1065.58 215.247C1066.41 217.851 1066 221.521 1065.65 224.735L1065.65 224.735C1065.47 226.296 1065.31 227.75 1065.31 228.921C1065.3 236.208 1065.56 243.465 1065.81 250.715L1065.81 250.716C1065.91 253.458 1066.01 256.2 1066.09 258.942C1066.1 259.269 1066.09 259.573 1066.06 259.854Z" fill="#89C5CC"/>
<path fill-rule="evenodd" clip-rule="evenodd" d="M985.068 263.614C980.216 265.742 982.832 274.254 984.513 277.198C987.276 282.039 992.883 285.827 998.933 288.34C1011.16 293.418 1028.79 292.069 1038.04 300.874C1038.13 300.965 1041.33 303.341 1042.06 300.264C1042.65 297.739 1036.69 293.883 1034.37 292.617C1027.8 289.018 1019.36 287.857 1011.76 286.059C1003.64 284.142 994.743 280.607 991.342 274.328C990.137 272.104 992.433 260.368 985.068 263.614" fill="#C1DEE2"/>
<path fill-rule="evenodd" clip-rule="evenodd" d="M1095.98 267.707C1091.54 268.627 1094.48 273.22 1094.47 275.52C1094.46 278.389 1093.24 281.392 1090.88 283.682C1084.91 289.488 1073.22 290.358 1064.45 292.023C1058.08 293.233 1042.85 295.827 1042.25 302.291C1041.59 309.51 1055.03 300.725 1056.17 300.365C1068.74 296.903 1085 296.235 1094.7 288.615C1098.71 285.47 1101.07 281.272 1101.45 276.939C1101.66 274.499 1101.7 266.534 1095.98 267.707" fill="#C1DEE2"/>
<path fill-rule="evenodd" clip-rule="evenodd" d="M1004.11 331.741C1004.01 318.384 1021.04 310.304 1036.43 307.265C1054.94 303.605 1072.18 313.339 1074.36 327.343C1076.66 342.122 1061.82 354.019 1042.26 354.672C1025.05 355.245 1004.22 345.994 1004.11 331.741ZM1045.45 313.687C1046.45 314.709 1047.36 316.339 1045.34 317.227C1043.4 318.075 1042.43 317.055 1041.46 316.028C1040.84 315.379 1040.22 314.728 1039.35 314.544C1037.1 314.069 1033.49 315.845 1031.61 316.881C1030.85 317.301 1029.77 318.206 1028.51 319.264C1024.48 322.632 1018.6 327.549 1015.35 323.318C1002.38 340.124 1034.7 352.701 1053.08 346.341C1073.26 339.356 1069.33 313.82 1045.45 313.687Z" fill="#89C5CC"/>
<path fill-rule="evenodd" clip-rule="evenodd" d="M1028.51 327.269C1028.51 330.335 1034.96 330.335 1034.96 327.269C1034.96 324.238 1028.51 324.108 1028.51 327.269" fill="#89C5CC"/>
<path fill-rule="evenodd" clip-rule="evenodd" d="M1039.86 326.694C1039.86 330.449 1047.76 330.449 1047.76 326.694C1047.76 322.981 1039.86 322.823 1039.86 326.694" fill="#89C5CC"/>
<path fill-rule="evenodd" clip-rule="evenodd" d="M1031.74 335.445C1025.28 338.299 1043.76 343.97 1044.49 338.175C1044.8 335.675 1041.58 336.349 1039.43 336.165C1037.37 335.989 1033.69 334.592 1031.74 335.445" fill="#89C5CC"/>
<path fill-rule="evenodd" clip-rule="evenodd" d="M1028.94 355.694C1029.22 362.983 1029.08 370.269 1030.92 377.457C1031.27 378.822 1031.52 383.775 1032.95 384.789C1036.49 387.284 1036.55 382.502 1036.69 380.669C1037.18 374.106 1036.26 367.338 1036.06 360.761C1036.01 359.345 1036.51 356.413 1035.62 355.042C1034.21 352.867 1028.8 352.221 1028.94 355.694" fill="#C1DEE2"/>
<path fill-rule="evenodd" clip-rule="evenodd" d="M1022.02 349.783C1007.86 361.722 988.345 360.843 968.688 361.888C958.303 362.441 947.802 363.575 939.445 368.618C935.558 370.965 932.207 373.903 929.955 377.252C928.971 378.716 924.301 387.164 931.314 385.16C933.801 384.449 936.249 378.862 937.857 377.21C940.921 374.063 944.841 371.465 949.543 369.776C958.614 366.518 969.445 366.573 979.281 366.16C989.562 365.728 1000.6 365.324 1010.05 361.968C1014.49 360.389 1018.66 358.419 1022.24 355.882C1023.52 354.975 1026.26 353.434 1026.47 352.047C1026.7 350.461 1024.67 347.559 1022.02 349.783" fill="#C1DEE2"/>
<path fill-rule="evenodd" clip-rule="evenodd" d="M950.497 386.428C937.188 386.762 923.895 387.166 910.605 387.798C907.881 387.927 898.8 387.514 901.113 391.704C902.967 395.063 914.041 392.841 917.705 392.678C931.554 392.061 945.46 391.847 959.28 390.911C962.385 390.702 976.418 390.785 970.624 386.654C967.867 384.688 954.306 386.33 950.497 386.428" fill="#89C5CC"/>
<path fill-rule="evenodd" clip-rule="evenodd" d="M892.662 391.247C888.467 395.384 890.394 405.438 890.711 410.411C891.019 415.23 889.772 424.041 898.15 424.788C895.49 424.526 900.17 424.909 900.931 424.94C902.633 425.009 904.342 425.031 906.045 425.045C909.98 425.077 913.917 425.038 917.852 424.978C926.765 424.845 935.7 424.65 944.602 424.28C948.343 424.124 968.642 424.254 969.445 421.336C970.472 417.607 951.01 419.717 947.527 419.836C939.042 420.128 930.544 420.189 922.051 420.273C917.842 420.315 913.629 420.346 909.42 420.284C907.682 420.259 900.799 420.794 899.743 419.924C898.842 419.182 899.545 412.369 899.526 411.327C899.464 407.93 899.469 404.524 899.63 401.128C899.739 398.842 901.385 394.492 900.043 392.344C898.738 390.256 894.935 389.543 892.662 391.247" fill="#89C5CC"/>
<path fill-rule="evenodd" clip-rule="evenodd" d="M961.194 391.441C961.437 399.008 961.512 406.729 963.893 414.13C964.685 416.593 965.795 421.672 969.091 422.947C972.55 424.285 975.537 422.375 975.763 419.802C976.048 416.566 973.74 412.319 973.267 409C972.714 405.127 972.393 401.25 972.204 397.358C972.061 394.432 973.246 390.043 969.529 388.156C966.191 386.46 961.085 388.168 961.194 391.441" fill="#89C5CC"/>
<path fill-rule="evenodd" clip-rule="evenodd" d="M987.68 389.593C983.541 392.688 985.391 402.489 985.908 406.467C986.287 409.38 990.535 423.711 996.899 416.238C999.713 412.932 996.137 404.191 996.162 400.337C996.179 397.882 997.336 394.777 996.778 392.419C996.039 389.302 991.435 386.778 987.68 389.593" fill="#89C5CC"/>
<path fill-rule="evenodd" clip-rule="evenodd" d="M1016.34 387.038C1028.77 386.075 1041.22 385.352 1053.72 385.263C1054.32 385.259 1054.95 385.253 1055.61 385.247C1064.18 385.166 1077.06 385.043 1082.82 389.873C1085.96 392.505 1087.39 396.573 1088.63 400.119C1088.86 400.781 1089.08 401.424 1089.31 402.036C1089.51 402.56 1089.76 403.156 1090.04 403.802C1091.33 406.846 1093.08 410.965 1091.31 413.515C1090.33 414.914 1088.76 416.106 1086.38 415.611C1085.83 415.495 1085.39 415.347 1085.05 415.173C1085.96 415.914 1086.36 416.969 1085.77 418.002C1084.63 419.998 1081.01 420.04 1078.16 420.074C1077.47 420.082 1076.82 420.09 1076.27 420.124C1066.78 420.718 1057.24 421.115 1047.71 421.177C1043.18 421.207 1038.64 421.179 1034.11 421.151C1029.44 421.123 1024.77 421.094 1020.1 421.129C1016.71 421.154 1013.26 421.395 1009.81 421.637C1005.45 421.943 1001.09 422.248 996.849 422.118C993.678 422.02 990.291 421.24 991.095 418.163C991.75 415.651 994.9 415.432 997.722 415.236C997.968 415.219 998.211 415.202 998.45 415.183C1007.44 414.496 1016.43 414.253 1025.46 414.278C1044.43 414.327 1063.39 414.253 1082.37 414.179C1083.15 414.227 1083.88 414.451 1084.49 414.792C1083.8 414.169 1083.82 413.341 1083.83 412.458C1083.84 412.059 1083.84 411.648 1083.79 411.241C1083.67 410.422 1083.56 409.607 1083.46 408.793C1083.11 406.104 1082.76 403.435 1082.08 400.729C1081.97 400.321 1081.87 399.872 1081.77 399.396C1081.15 396.588 1080.32 392.867 1077.35 391.351C1074.36 389.826 1068.49 389.899 1063.92 389.956C1062.69 389.972 1061.55 389.986 1060.59 389.967C1048.39 389.731 1036.13 390.381 1023.99 391.21C1023.05 391.273 1022.12 391.335 1021.19 391.396C1016.57 391.698 1011.92 392.001 1007.37 392.622C1006.54 392.735 1005.27 393.069 1003.81 393.451C999.923 394.468 994.715 395.832 992.946 394.33C987.084 389.353 1012.84 387.309 1016.34 387.038Z" fill="#89C5CC"/>
<path fill-rule="evenodd" clip-rule="evenodd" d="M1148.62 375.705C1149.16 376.227 1149.16 376.227 1148.62 375.705ZM1064.48 344.868C1056.93 348.201 1070.9 357.978 1074.46 359.491C1082.48 362.893 1093.48 363.407 1102.43 364.364C1113.75 365.576 1126.07 366.021 1136.95 368.807C1141.59 369.994 1144.54 371.846 1147.57 374.692C1149.11 376.135 1152.81 382.351 1156.19 380.879C1162.98 377.916 1144.68 365.479 1140.65 364.142C1131.48 361.102 1120.65 360.251 1110.85 359.071C1101.73 357.972 1092.42 357.156 1083.54 355.221C1078.65 354.157 1075.18 352.44 1072.36 349.155C1070.6 347.107 1069.16 342.811 1064.48 344.868" fill="#C1DEE2"/>
<path fill-rule="evenodd" clip-rule="evenodd" d="M1180.24 383.064C1171.53 383.209 1162.84 383.712 1154.16 384.215C1149.28 384.497 1144.41 384.779 1139.53 384.998C1138.01 385.066 1136.48 385.128 1134.96 385.189L1134.96 385.189C1130.66 385.363 1126.36 385.537 1122.09 385.861C1121.44 385.91 1120.68 385.957 1119.86 386.007C1116.23 386.231 1111.29 386.536 1108.12 387.531C1105.22 385.884 1100.75 387.284 1100.68 390.219C1100.56 395.565 1100.62 400.816 1101.49 406.129C1101.69 407.363 1102.73 413.607 1104.99 416.858C1104.19 419.927 1107.67 420.788 1110.92 421.023C1123.48 421.934 1136.66 421.227 1149.66 420.53C1156.27 420.175 1162.83 419.823 1169.25 419.687C1171.38 419.642 1173.54 419.624 1175.71 419.605C1182.81 419.546 1190.04 419.485 1196.9 418.478C1197.18 418.438 1197.48 418.398 1197.79 418.356C1200.5 417.99 1204.24 417.486 1204.53 415.243C1204.7 413.897 1203.69 412.665 1202 412.492C1202.11 411.37 1201.92 410.146 1201.79 409.246C1201.75 409.037 1201.72 408.845 1201.7 408.676C1201.29 405.556 1200.26 402.457 1199.23 399.397C1199 398.71 1198.77 398.024 1198.55 397.34C1198.31 396.583 1198.08 395.683 1197.84 394.712L1197.84 394.712C1196.97 391.285 1195.89 386.978 1193 384.979C1189.98 382.882 1185.05 382.975 1181.11 383.049C1180.81 383.054 1180.52 383.06 1180.24 383.064ZM1195.56 412.826C1194.53 410.798 1194.22 408.055 1193.94 405.448V405.447C1193.76 403.81 1193.58 402.227 1193.24 400.908C1192.98 399.917 1192.76 398.874 1192.55 397.812L1192.55 397.812C1192.02 395.235 1191.48 392.557 1190.19 390.299C1188.47 387.274 1186.93 387.39 1183.3 387.663C1182.62 387.714 1181.87 387.771 1181.04 387.813C1177.33 388.002 1173.63 388.242 1169.94 388.483C1168.16 388.598 1166.39 388.713 1164.61 388.823C1157.02 389.292 1149.42 389.652 1141.82 390.013C1137.38 390.223 1132.93 390.433 1128.49 390.666C1125.01 390.848 1121.61 391.345 1118.22 391.84L1118.22 391.84C1115.54 392.233 1112.86 392.624 1110.16 392.856C1110.13 393.549 1110.05 394.244 1109.97 394.907L1109.97 394.907C1109.87 395.809 1109.78 396.65 1109.8 397.339C1109.89 400.392 1110.25 403.427 1110.61 406.466L1110.61 406.466C1110.66 406.933 1110.72 407.401 1110.77 407.869C1110.84 408.429 1111 409.149 1111.18 409.948C1111.45 411.183 1111.77 412.606 1111.84 413.917C1112.17 413.916 1112.5 413.916 1112.82 413.917C1113.23 413.918 1113.64 413.92 1114.03 413.914C1123.6 413.789 1133.16 413.571 1142.73 413.295C1143.95 413.26 1145.17 413.224 1146.39 413.189C1154.92 412.939 1163.46 412.69 1172 412.616C1175.39 412.587 1178.83 412.667 1182.27 412.747C1186.71 412.85 1191.16 412.954 1195.56 412.826Z" fill="#89C5CC"/>
</g>
<path fill-rule="evenodd" clip-rule="evenodd" d="M534.181 492.584C541.455 496.971 548.602 499.091 551.957 498.226C560.37 496.056 561.144 465.257 554.634 453.115C548.125 440.974 514.661 435.681 512.974 459.738C512.388 468.088 515.892 475.539 521.068 481.619L511.787 524.909H538.747L534.181 492.584Z" fill="#B28B67"/>
<path fill-rule="evenodd" clip-rule="evenodd" d="M543.985 439.891C540.301 438.767 534.954 438.386 532.704 438.644C533.984 435.576 534.492 432.157 534.078 428.829C533.675 425.595 532.231 422.841 530.896 419.955C530.28 418.625 529.582 417.303 528.542 416.285C527.482 415.249 526.141 414.565 524.735 414.238C523.295 413.904 521.79 413.932 520.348 414.235C519.711 414.369 519.138 414.661 518.513 414.823C517.873 414.989 517.562 414.588 517.097 414.185C515.977 413.214 514.334 412.734 512.917 412.562C511.327 412.37 509.676 412.61 508.16 413.133C506.684 413.642 505.266 414.469 504.198 415.674C503.723 416.21 503.292 416.821 503.011 417.495C502.896 417.771 502.877 417.935 502.602 418.036C502.347 418.13 502.048 418.133 501.785 418.222C499.24 419.085 497.063 421.053 495.879 423.58C495.187 425.054 494.86 427.649 494.949 430.558C495.039 433.468 497.664 441.058 500.119 443.827C502.311 446.298 505.532 447.929 508.64 448.643C506.577 451.003 505.203 453.952 504.188 456.952C503.085 460.21 502.402 463.595 502.15 467.045C501.91 470.322 501.888 473.788 502.656 476.995C503.374 479.994 504.91 482.455 507.474 484.016C508.649 484.731 509.912 485.268 511.183 485.759C512.436 486.243 513.692 486.713 515.004 486.985C517.488 487.498 520.349 487.41 522.262 485.432C522.951 484.719 523.709 483.823 524.212 482.952C524.393 482.639 524.502 482.434 524.283 482.127C524.019 481.761 523.594 481.48 523.255 481.193C521.327 479.557 520.134 477.373 519.833 474.778C519.527 472.145 520.234 468.747 522.792 467.598C525.95 466.179 529.428 467.807 532.235 469.325C533.427 465.112 535.877 461.319 539.717 459.386C543.965 457.248 548.84 456.998 553.205 455.164C554.343 454.686 555.502 454.143 556.339 453.169C556.689 452.762 557.1 452.234 557.24 451.696C557.423 450.989 556.967 450.396 556.615 449.844C554.749 446.921 547.669 441.015 543.985 439.891Z" fill="#191847"/>
<path fill-rule="evenodd" clip-rule="evenodd" d="M509.54 814.932C557.311 814.932 596.037 777.941 596.037 732.309C596.037 686.678 557.311 649.686 509.54 649.686C461.769 649.686 423.043 686.678 423.043 732.309C423.043 777.941 461.769 814.932 509.54 814.932Z" fill="#C5CFD6"/>
<path fill-rule="evenodd" clip-rule="evenodd" d="M644.015 727.903C648.194 742.548 658.602 770.306 672.995 802.184L686.672 798.191C674.707 724.837 664.749 676.273 659.045 661.492C655.276 651.726 626.764 652.87 630.044 672.52C631.419 680.761 636.862 702.826 644.015 727.903ZM587.8 675.947C565.495 680.571 519.25 696.918 506.045 702.142C497.745 705.425 503.096 716.558 510.176 715.584C511.375 715.419 515.617 714.944 521.946 714.236C542.276 711.96 584.143 707.273 615.896 702.699C632.615 700.291 623.621 668.952 606.261 672.268C600.421 673.384 594.209 674.618 587.8 675.947Z" fill="#B28B67"/>
<path fill-rule="evenodd" clip-rule="evenodd" d="M659.919 653.214C657.639 645.767 553.982 619.335 553.982 619.335H545.487V627.256L616.916 663.644C616.821 664.818 616.879 666.059 617.11 667.368C616.594 694.343 628.131 714.495 639.554 734.447C647.023 747.494 654.444 760.456 658.413 775.185L684.656 771.267C683.891 769.31 682.683 760.489 681.03 748.428C676.862 718.016 669.873 667.007 660.067 653.512C660.032 653.465 659.998 653.418 659.962 653.371C659.95 653.319 659.935 653.266 659.919 653.214Z" fill="#1F28CF"/>
<path fill-rule="evenodd" clip-rule="evenodd" d="M551.421 685.254C544.886 683.945 538.867 682.776 533.717 681.872C500.451 676.034 490.751 658.214 496.486 619.335H557.778C567.79 622.213 619.822 644.049 646.819 655.662C664.687 663.349 659.054 691.059 648.935 698.27C648.881 698.713 648.698 699.013 648.374 699.148C610.011 715.059 577.297 713.872 556.29 713.109C547.491 712.79 540.746 712.545 536.5 713.662L529.847 692.66L551.421 685.254Z" fill="#2B44FF"/>
<path fill-rule="evenodd" clip-rule="evenodd" d="M513.043 700.783C513.004 699.612 512.017 698.678 510.853 698.797C508.471 699.041 504.744 699.543 502.965 700.411C500.234 701.744 495.438 705.212 495.438 705.212C496.983 708.382 523.213 762.198 523.213 762.198C523.213 762.198 531.634 760.837 529.886 755.766C528.139 750.695 527.067 747.299 527.067 747.299L525.953 714.926C525.934 714.363 525.454 713.927 524.892 713.962L519.808 714.282C519.808 714.282 515.583 710.86 514.233 708.09C513.377 706.334 513.118 702.992 513.043 700.783Z" fill="#E4E4E4"/>
<path fill-rule="evenodd" clip-rule="evenodd" d="M669.314 794.909C668.245 794.431 666.971 794.908 666.568 796.008C665.743 798.258 664.56 801.829 664.56 803.81C664.56 806.85 665.572 812.684 665.572 812.684C669.097 812.684 728.93 812.684 728.93 812.684C728.93 812.684 731.4 804.513 726.079 803.862C720.758 803.211 717.239 802.686 717.239 802.686L687.675 789.497C687.16 789.267 686.558 789.508 686.343 790.029L684.402 794.741C684.402 794.741 679.476 797.041 676.396 797.041C674.444 797.041 671.332 795.81 669.314 794.909Z" fill="#E4E4E4"/>
<path fill-rule="evenodd" clip-rule="evenodd" d="M640.61 630.166L604.778 603.835L596.857 623.429L632.34 638.154C642.375 649.95 647.987 654.868 649.175 652.907C650.176 651.253 649.393 649.705 648.672 648.279C648.111 647.169 647.586 646.132 647.972 645.177C648.854 642.997 655.595 643.227 661.982 643.718C668.37 644.21 666.509 641.365 664.968 639.961C658.448 636.055 650.329 632.79 640.61 630.166ZM452.697 676.562C455.989 669.879 467.199 604.744 467.199 604.744L490.674 604.836C490.674 604.836 468.932 675.072 467.199 679.369C464.948 684.952 468.772 693.063 471.365 698.563C471.766 699.414 472.138 700.202 472.453 700.909C468.855 702.52 467.127 700.573 465.305 698.52C463.247 696.201 461.069 693.748 455.943 696.134C453.963 697.056 452.089 698.146 450.258 699.211C443.934 702.89 438.124 706.27 430.22 701.389C428.967 700.616 427.594 697.703 430.912 695.426C439.177 689.755 451.088 679.829 452.697 676.562Z" fill="#B28B67"/>
<path fill-rule="evenodd" clip-rule="evenodd" d="M533.911 506.172L543.624 504.505C579.665 535.66 594.468 595.513 638.644 627.22L628.011 640.409C551.373 630.914 532.378 557.907 533.911 506.172Z" fill="#E87613"/>
<path fill-rule="evenodd" clip-rule="evenodd" d="M491.567 628.328C491.567 628.328 549.989 628.328 577.515 628.328C581.442 628.328 580.702 622.653 580.134 619.789C573.582 586.74 548.004 551.114 548.004 504.068L523.213 500.178C502.707 533.18 495.616 573.813 491.567 628.328Z" fill="#DDE3E9"/>
<path fill-rule="evenodd" clip-rule="evenodd" d="M481.902 651.934C478.04 661.218 474.252 669.319 470.683 675.541H452.25C450.267 611.375 474.543 562.001 494.86 532.23C490.349 531.907 486.277 530.018 483.703 525.371C474.642 509.009 477.914 500.001 487.598 497.04C492.923 495.411 497.931 496.523 503.926 497.853C508.832 498.942 514.398 500.177 521.339 500.178C521.342 500.178 521.344 500.178 521.346 500.178C522.019 500.178 522.631 500.223 523.187 500.309L531.413 500.779C531.413 500.779 564.814 614.058 549.837 651.934H481.902Z" fill="#FF9B21"/>
<path fill-rule="evenodd" clip-rule="evenodd" d="M481.902 651.934C486.971 639.754 492.168 625.536 497.169 610.853C499.031 627.023 502.131 643.263 507.293 651.934H481.902Z" fill="black" fill-opacity="0.1"/>
<path fill-rule="evenodd" clip-rule="evenodd" d="M850.823 421.65C843.538 426.041 836.38 428.162 833.02 427.296C824.594 425.125 823.82 394.302 830.339 382.151C836.858 369.999 870.372 364.703 872.061 388.779C872.647 397.134 869.139 404.592 863.955 410.676L873.25 454H846.25L850.823 421.65Z" fill="#B28B67"/>
<path fill-rule="evenodd" clip-rule="evenodd" d="M836.423 374.138C837.042 373.769 838.335 372.99 838.991 372.708C839.146 372.64 840.232 371.865 840.261 371.875C841.084 372.153 843.465 373.177 843.669 374.062C843.701 374.129 843.732 374.192 843.762 374.247C844.1 374.86 844.409 375.489 844.705 376.125C845.353 377.522 845.912 378.982 846.447 380.43C847.487 383.25 848.391 386.137 849.223 389.03C850.069 391.975 850.787 394.954 851.591 397.911C852.748 402.166 854.229 406.317 855.378 410.57C856.112 413.286 856.52 416.034 856.327 418.829C856.326 418.863 856.324 418.896 856.321 418.93C856.32 418.944 856.319 418.958 856.317 418.972C856.285 419.401 856.238 419.832 856.176 420.264C856.121 420.634 856.066 421.004 856.008 421.375C854.959 419.282 854.157 416.976 853.307 414.787C853.224 414.573 853.144 414.357 853.067 414.14C852.793 413.696 852.513 413.256 852.23 412.817C850.447 410.048 848.658 407.29 846.948 404.471C843.873 399.401 840.827 394.224 837.181 389.569C836.105 388.194 835.003 386.841 833.94 385.455C833.335 384.666 832.746 383.864 832.176 383.048C831.769 382.464 829.997 380.43 830.639 379.208C830.967 378.582 834.819 375.096 836.423 374.138Z" fill="#2C2C2C"/>
<path fill-rule="evenodd" clip-rule="evenodd" d="M838.796 372.81C838.194 373.012 838.487 371.761 839.069 371.32C841.768 369.28 852.086 368.54 861.064 370.403C867.079 371.652 874.075 374.76 878.879 378.755C883.21 382.357 886.188 388.13 887.722 393.709C889.332 399.566 889.575 405.673 888.678 411.679C888.481 412.998 888.058 414.256 887.822 415.547C887.556 417.001 887.42 418.401 886.946 419.816C886.656 420.683 886.163 421.532 885.916 422.403C885.633 423.397 885.806 424.316 886.012 425.328C886.347 426.975 886.764 428.62 887.355 430.194C888.244 432.557 889.322 434.771 889.998 437.223C890.897 440.486 894.659 451.106 891.91 454H839.576C840.894 450.405 844.85 446.175 845.65 442.327C846.122 440.06 846.346 435.11 846.396 434.93C847.575 426.8 849.878 422.918 851.32 421.509C852.762 420.1 854.683 419.667 854.782 418.445C855.191 413.39 853.181 408.547 851.707 403.83C849.951 398.207 848.664 392.446 846.853 386.842C846.051 384.361 841.919 371.761 838.796 372.81Z" fill="#8991DC"/>
<path fill-rule="evenodd" clip-rule="evenodd" d="M859.118 396.785C859.542 388.229 859.118 384.887 857.144 378.625H858.361C860.285 381.11 861.894 388.711 860.086 396.785H859.118ZM882.966 396.382L882.966 396.382C883.178 395.862 883.395 395.33 883.62 394.785L884.394 395.157C881.953 404.084 878.984 410.976 868.789 416.754L867.996 416.199C877.638 409.419 879.705 404.36 882.966 396.382ZM868.51 385.704C868.408 386.478 868.31 387.232 868.215 387.969C866.749 399.279 865.82 406.452 857.65 419.46L858.576 419.743C867.531 407.679 868.951 397.833 869.374 385.773L868.51 385.704ZM877.33 422.365L878.122 423.328C874.154 424.159 871.457 427.077 868.364 430.422C865.092 433.961 861.378 437.979 855.25 440.508L854.112 439.818C860.801 436.341 863.913 432.884 866.63 429.866C869.442 426.742 871.832 424.088 877.33 422.365Z" fill="black" fill-opacity="0.2"/>
<path fill-rule="evenodd" clip-rule="evenodd" d="M891.213 549L848.941 687.467L828.464 805.223H812.408L834.046 549H891.213Z" fill="#997659"/>
<path fill-rule="evenodd" clip-rule="evenodd" d="M906.336 549C903.465 625.026 906.844 664.241 907.486 671.148C908.129 678.055 916.928 722.842 937.76 807.542L920.651 801.655C887.729 723.973 876.51 683.6 872.734 673.399C868.958 663.199 858.929 621.732 842.648 549H906.336Z" fill="#B28B67"/>
<path fill-rule="evenodd" clip-rule="evenodd" d="M934.761 800.204C935.831 799.725 937.106 800.203 937.509 801.303C938.334 803.556 939.517 807.132 939.517 809.115C939.517 812.159 938.504 818 938.504 818C934.979 818 875.146 818 875.146 818C875.146 818 872.677 809.819 877.998 809.167C883.319 808.515 886.838 807.989 886.838 807.989L916.401 794.784C916.916 794.554 917.519 794.795 917.734 795.317L919.675 800.035C919.675 800.035 924.601 802.338 927.681 802.338C929.632 802.338 932.744 801.106 934.761 800.204Z" fill="#E4E4E4"/>
<path fill-rule="evenodd" clip-rule="evenodd" d="M829.168 800.204C830.238 799.725 831.513 800.203 831.916 801.303C832.74 803.556 833.923 807.132 833.923 809.115C833.923 812.159 832.911 818 832.911 818C829.386 818 769.553 818 769.553 818C769.553 818 767.083 809.819 772.404 809.167C777.725 808.515 781.245 807.989 781.245 807.989L810.808 794.784C811.323 794.554 811.926 794.795 812.14 795.317L814.082 800.035C814.082 800.035 819.007 802.338 822.087 802.338C824.039 802.338 827.15 801.106 829.168 800.204Z" fill="#E4E4E4"/>
<path fill-rule="evenodd" clip-rule="evenodd" d="M896.83 549L878.857 619.547H823.959L832.144 549H896.83Z" fill="#69A1AC"/>
<path fill-rule="evenodd" clip-rule="evenodd" d="M906.94 549C915.811 575.642 910.31 619.547 910.31 619.547H854.289L838.884 549H906.94Z" fill="#89C5CC"/>
<path fill-rule="evenodd" clip-rule="evenodd" d="M968.067 584.484C963.873 578.331 935.604 495.535 935.604 495.535L911.222 499.055C911.222 499.055 951.759 585.272 954.075 589.282C957.084 594.491 954.419 603.048 952.612 608.851C952.333 609.748 952.074 610.58 951.86 611.323C955.652 612.415 957.095 610.248 958.616 607.963C960.335 605.383 962.153 602.652 967.569 604.299C969.661 604.935 971.671 605.752 973.635 606.55C980.418 609.308 986.65 611.841 993.81 605.912C994.945 604.972 995.902 601.899 992.295 600.109C983.31 595.651 970.117 587.491 968.067 584.484ZM757.951 580.205L785.19 545.038L798.217 561.669L768.114 585.594C761.704 599.69 757.657 605.96 755.973 604.404C754.553 603.092 754.88 601.39 755.181 599.822C755.416 598.601 755.635 597.46 755 596.65C753.551 594.8 747.124 596.879 741.11 599.113C735.096 601.347 736.104 598.102 737.2 596.329C742.401 590.78 749.318 585.405 757.951 580.205Z" fill="#B28B67"/>
<path fill-rule="evenodd" clip-rule="evenodd" d="M851.56 436.904L841.695 436.608C834.045 492.289 761.204 539.748 759.231 560.438C758.507 568.026 764.321 570.993 761.902 573.613L775.709 581.003C777.482 578.235 782.642 582.117 791.647 577.629C800.653 573.141 860.471 500.309 851.56 436.904Z" fill="#DB2721"/>
<path fill-rule="evenodd" clip-rule="evenodd" d="M867.611 423.212C869.772 422.753 871.896 424.133 872.356 426.294L873.83 433.225C893.917 444.604 944.7 479.904 967.296 555.729C969.67 563.694 968.058 568.366 966.771 572.098C965.89 574.652 965.16 576.766 965.962 579.194L950.209 586.012C949.951 584.172 947.689 583.063 944.77 581.632C940.527 579.551 934.896 576.79 932.019 570.112C929.292 563.782 925.497 555.931 921.06 547.227C922.464 559.383 921.729 570.847 918.012 580.779C908.74 605.557 832.91 590.469 822.058 568.046C816.267 556.08 820.506 544.755 826.113 529.778C833.23 510.765 842.55 485.867 836.356 446.3L833.841 434.475C833.381 432.315 834.76 430.191 836.921 429.732L867.611 423.212Z" fill="#FF4133"/>
</svg>
